<svg id="Layer_1" data-name="Layer 1" xmlns="http://www.w3.org/2000/svg" viewBox="0 0 161.04 213.06"><defs><style>.cls-1{fill:#ddd;}.cls-2{fill:#ccc;}.cls-3{fill:#454545;}.cls-4{fill:#6c6c6c;}.cls-5{fill:#4c4c4c;}.cls-6{fill:#cbcbcb;}.cls-7{fill:#4d4d4d;}.cls-8{fill:#474747;}.cls-9{fill:#929292;}.cls-10{fill:#6d6d6d;}.cls-11{fill:#6e6e6e;}.cls-12{fill:#dadada;}.cls-13{fill:#464646;}.cls-14{fill:#efefef;}.cls-15{fill:#bbb;}.cls-16{fill:#484848;}.cls-17{fill:#4e4e4e;}.cls-18{fill:#363636;}.cls-19{fill:#575757;}.cls-20{fill:#444;}.cls-21{fill:#515151;}.cls-22{fill:#3f3f3f;}.cls-23{fill:#505050;}.cls-24{fill:#4b4b4b;}.cls-25{fill:#373737;}.cls-26{fill:#b3b3b3;}.cls-27{fill:#323232;}.cls-28{fill:#333;}.cls-29{fill:#383838;}.cls-30{fill:#343434;}.cls-31{fill:#3e3e3e;}.cls-32{fill:#d2d2d2;}.cls-33{fill:#595959;}.cls-34{fill:#494949;}.cls-35{fill:#717171;}.cls-36{fill:#727272;}.cls-37{fill:#424242;}.cls-38{fill:#393939;}.cls-39{fill:#ececec;}.cls-40{fill:#3c3c3c;}.cls-41{fill:#5f5f5f;}.cls-42{fill:#8d8d8d;}.cls-43{fill:#606060;}.cls-44{fill:#353535;}.cls-45{fill:#2a2a2a;}.cls-46{fill:#525252;}.cls-47{fill:#212121;}.cls-48{fill:gray;}.cls-49{fill:#676767;}.cls-50{fill:#f5f5f5;}.cls-51{fill:#656565;}.cls-52{fill:#4a4a4a;}.cls-53{fill:#ababab;}.cls-54{fill:#4f4f4f;}.cls-55{fill:#848484;}.cls-56{fill:#747474;}.cls-57{fill:#707070;}.cls-58{fill:#434343;}.cls-59{fill:#8b8b8b;}.cls-60{fill:#e9e9e9;}.cls-61{fill:#313131;}.cls-62{fill:#282828;}.cls-63{fill:#585858;}.cls-64{fill:#888;}.cls-65{fill:#686868;}.cls-66{fill:#ebebeb;}.cls-67{fill:#3b3b3b;}.cls-68{fill:#787878;}.cls-69{fill:#5d5d5d;}.cls-70{fill:#dbdbdb;}.cls-71{fill:#f7f7f7;}.cls-72{fill:#5c5c5c;}.cls-73{fill:#6f6f6f;}.cls-74{fill:#d4d4d4;}.cls-75{fill:#d3d3d3;}.cls-76{fill:#d7d7d7;}.cls-77{fill:#959595;}.cls-78{fill:#7b7b7b;}.cls-79{fill:#d6d6d6;}.cls-80{fill:#d9d9d9;}.cls-81{fill:#d5d5d5;}.cls-82{fill:#d8d8d8;}.cls-83{fill:#898989;}.cls-84{fill:#f3f3f3;}.cls-85{fill:#b1b1b1;}.cls-86{fill:#8a8a8a;}.cls-87{fill:#8c8c8c;}.cls-88{fill:#404040;}.cls-89{fill:#3a3a3a;}.cls-90{fill:#3d3d3d;}.cls-91{fill:#cdcdcd;}.cls-92{fill:#5a5a5a;}.cls-93{fill:#5b5b5b;}.cls-94{fill:#acacac;}.cls-95{fill:#7d7d7d;}.cls-96{fill:#2e2e2e;}.cls-97{fill:#c5c5c5;}.cls-98{fill:#a9a9a9;}.cls-99{fill:#979797;}.cls-100{fill:#616161;}.cls-101{fill:#e2e2e2;}.cls-102{fill:#dcdcdc;}.cls-103{fill:#7a7a7a;}.cls-104{fill:#414141;}.cls-105{fill:#c6c6c6;}.cls-106{fill:#999;}.cls-107{fill:#626262;}.cls-108{fill:#2d2d2d;}.cls-109{fill:#6b6b6b;}.cls-110{fill:#646464;}.cls-111{fill:#7f7f7f;}.cls-112{fill:#ededed;}.cls-113{fill:#868686;}.cls-114{fill:#666;}.cls-115{fill:#878787;}.cls-116{fill:#a6a6a6;}.cls-117{fill:#303030;}.cls-118{fill:#cacaca;}.cls-119{fill:#949494;}.cls-120{fill:#b4b4b4;}.cls-121{fill:#9b9b9b;}.cls-122{fill:#5e5e5e;}.cls-123{fill:#a1a1a1;}.cls-124{fill:#b8b8b8;}.cls-125{fill:#b6b6b6;}.cls-126{fill:#e4e4e4;}.cls-127{fill:#eaeaea;}.cls-128{fill:#a0a0a0;}.cls-129{fill:#c9c9c9;}.cls-130{fill:#767676;}.cls-131{fill:#636363;}.cls-132{fill:#e6e6e6;}.cls-133{fill:#e8e8e8;}.cls-134{fill:#545454;}.cls-135{fill:#838383;}.cls-136{fill:#969696;}.cls-137{fill:#b9b9b9;}.cls-138{fill:#9d9d9d;}.cls-139{fill:#7e7e7e;}</style></defs><title>leo_black</title><path class="cls-1" d="M169.62,138.2c-2.67,5.67-1.82,11.66-1.57,17.59l-1.07.37c-1.75-2.12-.1-5.15-1.93-7.25a1.72,1.72,0,0,0-.12-.92l-.06-1.88-1-5.12-.25-.74L163,141l.26,3.1-.42,0a3.28,3.28,0,0,0,.14,3.85l0,2.15a1.43,1.43,0,0,0,0,1.85v1.13l-.26,1.78a1.48,1.48,0,0,0,.47.2l-.35,3.64a44.5,44.5,0,0,1-7.19,10.08c-3.34,1.79-6,4.51-8.81,6.9-9.44,7.06-17.21,15.32-19.61,27.42L127,205c-1.63,3.22-.91,6.75-1.32,10.13l-3.58.88-2.1.32-2,.74-4.15.8a1.38,1.38,0,0,0-1.82.3,7.65,7.65,0,0,1-.06.9l.09-.09c-.74.31-1.72.2-2.1,1.16l-1,.85c-.85-1.12-1.43-.46-2,.31l-.84,1h-1.2l-4-.92,1-.18,1-.24c1.13-1.85,1.1-3.89.95-5.94l.13-23.88a15.24,15.24,0,0,0,1-5.93c2,1.72,2.09,6.08,6.38,4.61,2.63-.9,5.24-1.86,7.88-2.75s3.07-2.6,1.71-4.91l-.88-3.31c1.43-1.34,1-3.34,1.73-4.92L122,171l1-2,1-2,1.35-1.92,7.67-7.29,1.08-.59c3.8-2.1,7.64-4.16,10.21-7.86a6.72,6.72,0,0,0,2.51-3.38l.78-1.92c1.62-.83,1.88-2.46,2.37-4a2.55,2.55,0,0,1,0-.76c1.19-1.25,1.07-2.79.92-4.33,1.86-2.53.93-5.37.9-8.11l5.35-5.74.77-.26c.79,0,1-.51,1-1.13L160,117l.68-.92L163,113c2.87,6.24,3.27,13,4,19.67.22,2.14,0,4.34,2.33,5.56Z" transform="translate(-18.58 -9.18)"/><path class="cls-2" d="M81.75,217a3.11,3.11,0,0,1-2.73-.94c-.6-.46-1.19-1.12-1.91-.15L74,215c1.52-.07,1.54-.89,1-2v-5l0-2c.31-.64,1.5-1.33-.11-1.85q-.37-.27-.72-.57A.73.73,0,0,0,74,203l-.94-3A29.79,29.79,0,0,0,62.89,184l-2.07-2.92c.45-2.62-1.57-2.61-3.2-3l-2.76-2,.18-.86-1.17,0c-5.44-3.52-10.66-7.31-14.94-12.24l-.9-2,0,0-1-2.39A.63.63,0,0,0,37,158c-.25-2.1.15-4.29-.91-6.27l.11-3.59.55-2.19.07-1.84A3,3,0,0,0,36,141a42.2,42.2,0,0,0,2.07-11.67c.18-3.6.26-7.32,2.91-10.26l7.12,7.68c0,2.46-.47,5,.94,7.26.25,1.34-.71,3,1,4l.86.25.3,1.79L52.72,143,54.23,145a3.54,3.54,0,0,0,1.84,2.86l.89,1.26,1.19.8a9.36,9.36,0,0,0,4.8,4.2l4.79,3.08a15.92,15.92,0,0,0,5.15,4,17.22,17.22,0,0,0,4.92,5.16A1.65,1.65,0,0,0,78,167l1,2L80.07,172,81,177l.08,5.05a2.59,2.59,0,0,0,0,1c-1.62,3.11.45,3.67,2.8,4L91,190l-.35.3L91,190c4.34,1.11,5-2.88,7-5l1,3v4.95a74.13,74.13,0,0,0,0,26.11,7.14,7.14,0,0,0,0,.88l-.88,2L97,222l-.43-.78-.45.76L95,222a7.42,7.42,0,0,1,0-1c-.61-.51-1.21-1.18-1.93-.12L92,220.09,90,219c-.69-.47-1.38-1-2.05,0a4,4,0,0,1-3-1l2-1c-.6-.87-1.21-1.58-2-.14l-.07,1.12-1-.15C83.63,216.57,82.67,216.84,81.75,217Z" transform="translate(-18.58 -9.18)"/><path class="cls-3" d="M48.08,126.74,41,119.06l-4.44-7.49L34,120a1.54,1.54,0,0,0,0,2l-.7,2.1L32.14,124c-.81-6.39.81-12.66.86-19l1.18-2.16a3.12,3.12,0,0,0-.07-3.73L33,98l-1.32-2.78c.29-.59.66-1.35-.28-1.53-.67-.12-.47.62-.43,1.07-1.58.53-1.92,1.8-1.94,3.26l-.12,3-1,1c-1.11.81-.66,3.39-3.08,2.72A.91.91,0,0,1,25,104a1.57,1.57,0,0,0,.14-1.95c.73-4.51,2.46-8.73,3.9-13,3.24-.73,4.88-4,8-5l1,.07a3.12,3.12,0,0,0,3.87,0H38.09c2.16-1.41,4.65-.51,6.94-1A4,4,0,0,0,50,82.84L52,82.11,53,83c1.16,2.25-.84,3.08-1.94,4.31a60.72,60.72,0,0,1-7,1.94c-3.47.55-4.69,2.38-4,5.7-.07.43-1,.65-.3,1.26L40,94.93a65.74,65.74,0,0,0,7.26,15.88c-.07.82.52,1,1.13,1.09a7,7,0,0,1,2.9,2.91c-.55,2.05,1.09,1.79,2.2,2.08,2.11.6,3.28,2.25,4.4,4L59,121,68.93,126l2.92,1.41c1.51.89,3,1.84,4.89,1.65a9.33,9.33,0,0,0,5.25,2l0,0L86,132l.44.17h.47c1.13,1.09,2.64.85,4,1.13a.67.67,0,0,0,.24.57l.74,4-2.93,1a2.27,2.27,0,0,0-3,.13c-4.41-.21-8.88-.07-13-2-.52-1.41-1.24-.49-1.91-.17-3.56-.86-7.21-1.49-10.27-3.72.08-1-.44-.34-.74-.25-2.6-.91-5.32-1.61-7.31-3.72.52-2.5-.65-2.89-2.72-2.18l-1,0A7,7,0,0,0,48.08,126.74Z" transform="translate(-18.58 -9.18)"/><path class="cls-4" d="M157.9,120.87l-.77.26c-2.35-.56-3.59,1.34-5.16,2.41-10,6.78-21,10.26-32.93,11.49a1.55,1.55,0,0,0-2.05,0c-1.51.77-3.11,1.42-4,3l-2.1,0a2.72,2.72,0,0,1-.91,0,4.22,4.22,0,0,1,1.82-4.14l2.19-.8a.72.72,0,0,1,.62-.21l2.31-.66,4.18-1.11,1.45.31-.61-.5c4.17-2.72,9.52-3.16,13.22-6.8H135l2.07-.95,4.82-3.4c1.32-.09,2.09-1.05,2.95-1.88l.08,0L151.1,113l1.82-1,0-1,2-4,1.88-2.19.45.08-.16-.82L159.63,97a2,2,0,0,0,.44-2.94l-.14-4c1-2,4-3.2,2.09-6.14,5.94,2.2,9,6.48,7.82,11-3.57,1.66-3.58,5-3.78,8.18l-2.9,8.15-.46-.06.23.82.06,1-2.3,3.09L160,117l-1.07,2.73Z" transform="translate(-18.58 -9.18)"/><path class="cls-3" d="M86.14,11C87.85,9.36,90.06,10.47,92,10a23.3,23.3,0,0,0,15.09-.08c1.57.53,3.5-.44,4.82,1.13-.36.22-1,.28-.57.94.06.08.57-.16.87-.26l1.78.42L109,19c-.67.18-1.58-.37-2.09.78l2,.19.07,0q0,.4,0,.81L104,21a1.39,1.39,0,0,0-1.94.33l-1.12.51a1.53,1.53,0,0,0-1.9.06L95.93,21l.37-.3-.36.31C90.29,19.8,85.88,23.27,81,25c-2.63-2.14-6.11-1.76-9-3l-.9-1.73a16.28,16.28,0,0,1,8.59-6.31c.92-.81,3.06,2.35,3.2-1L85,12a2.53,2.53,0,0,0,3.52-.78Z" transform="translate(-18.58 -9.18)"/><path class="cls-5" d="M20,162c-2.83-2.68-.61-5.43-.13-8.16l.33.58h0l-.35-.59.24-1.84c2.24-1.28,2-3,1-5l.73-3.27,1.09,0-.81-.8c.13-1.37-.16-2.84.92-4l.23.21.38,1.08L24,139,24,137l3-.12a1.44,1.44,0,0,0,2.06.05,1.53,1.53,0,0,1,.9.33l1.82,1.83L32.13,150l0,5.88c-1.45,1.68-3.61,2.07-5.51,2.89C24.34,159.76,21.29,159.06,20,162Z" transform="translate(-18.58 -9.18)"/><path class="cls-6" d="M166.07,103.06c.2-3.22.21-6.52,3.78-8.18,2.61,7.68,2.17,15.77,3.18,23.67.53,4.12,1.28,8.34.86,12.4-.25,2.48,4.09,2.37,2,5-.35-.86-1.08-.86-1.83-.8l-1.32.92-.48-.1L170,137a8.47,8.47,0,0,1-.9.16c-.16-7.47-1.33-14.87-1.31-22.38A33.34,33.34,0,0,0,166.07,103.06Z" transform="translate(-18.58 -9.18)"/><path class="cls-7" d="M125.72,215.11c.41-3.38-.31-6.91,1.32-10.13a1.52,1.52,0,0,0,.14-1.9c2.4-12.1,10.17-20.36,19.61-27.42,1.89.83,4.31.46,5.64,2.54h-.13c-.6,0-1.15.11-1.1.92L135.48,193a1.45,1.45,0,0,0-.64,1.91C132,200.06,129.19,205.19,128,211l-.91,3.26Z" transform="translate(-18.58 -9.18)"/><path class="cls-8" d="M60.82,181.11,62.89,184a11.84,11.84,0,0,0-4.27,3.16c-6.26-5.77-13.86-9.93-19.57-16.36l-1.29-1.79a2.93,2.93,0,0,1-1.83-2.85L36,163h0l1-2h0l1.07,0,0,0,.9,2c4.29,4.93,9.51,8.71,14.94,12.24l1,.88,2.76,2A8.21,8.21,0,0,0,60.82,181.11Z" transform="translate(-18.58 -9.18)"/><path class="cls-9" d="M134,65c0,5-2.87,8.82-5,12.95-1.24-.36-2.42-.52-3,1l-2.19-.3A11.18,11.18,0,0,0,124,73c-.94-2.53-.19-4.84.94-7.09l.24-.83c2.76-4.56,1.64-9.36.9-14.14C131,54.37,132.61,59.65,134,65Z" transform="translate(-18.58 -9.18)"/><path class="cls-10" d="M133.84,29.19c5.89,4.06,8,10.19,9.16,16.82l-5,7-4.87-8.11.78-5.29a2.85,2.85,0,0,0-1.07-2.58,1.83,1.83,0,0,0-.64-2.05c-1.29-3.63-4.54-5.4-7.28-7.66a8.24,8.24,0,0,1,.12-.89,1.2,1.2,0,0,0,0-.5l6.85,2.09L134,29.14Z" transform="translate(-18.58 -9.18)"/><path class="cls-7" d="M138,53l5-7c1.54-1.48,3.09-3,4.63-4.46,2.63-2.55,5.11-2.67,7.4.43l-.19,1-.75,1.72c-3.16-1-5.79-1.13-5.9,3.29l.84,1.89,0,0A2.27,2.27,0,0,0,150,52.1l1.13,4.9-.44.09-.85,1.24c-1-1.86-2-3.06-4.61-2.43-2,.48-4.31.64-6.18-.9Z" transform="translate(-18.58 -9.18)"/><path class="cls-3" d="M58.61,187.2A11.84,11.84,0,0,1,62.89,184,29.79,29.79,0,0,1,73,199.94l.94,3a.73.73,0,0,1,.17.61A6.57,6.57,0,0,0,75,208v5H73.11l-.22-2.67L72.06,207a3.41,3.41,0,0,1-1.12-2.85L70.1,202C67.75,197.2,64,193.37,61,189a2.81,2.81,0,0,0-2.28-1.79Z" transform="translate(-18.58 -9.18)"/><path class="cls-5" d="M24.84,104.71c2.42.67,2-1.91,3.08-2.72l-1.14,13-.9,1.13a7.26,7.26,0,0,0,0,6.81l.31,1.15-1,3.22c-1.23-3.26-1.13-.25-1.23.31-.36,2.08.38,4.81-3.15,4.79a13.07,13.07,0,0,1,.18-10.45c1.81-.88.55-1.91.13-2.89l.89-4.08.3.37L22,115C22.48,111.42,23,107.89,24.84,104.71Z" transform="translate(-18.58 -9.18)"/><path class="cls-8" d="M20,162c1.3-3,4.35-2.26,6.61-3.23,1.89-.82,4.05-1.21,5.5-2.89H32a1.26,1.26,0,0,0,2-.44c-.07-.09-.2-.19-.19-.27a3.76,3.76,0,0,1,.15-.62l0-2.59,0,0a6.46,6.46,0,0,0,1-4.24,1.11,1.11,0,0,1,.21-.75h.63l.43,1.13-.11,3.59c0,2.14-.31,4.32.91,6.27a.63.63,0,0,1,.12.58L37,161h0l-1,2h0l-2.46-2a4.94,4.94,0,0,0-1.27.64C26.94,166.74,25.68,166.78,20,162Z" transform="translate(-18.58 -9.18)"/><path class="cls-7" d="M123,23c-2.67-.91-5.35,2.75-8,0-.49-2.14-2-2.94-4-3h-2l-.07,0q0-.48,0-1l5-6.89c4.6.73,7.78,3.71,10.82,6.89-1.82.76-3.67-.25-5.74-.31,1,2.24,2.87,2.58,4.31,3.51A5.48,5.48,0,0,1,123,23Z" transform="translate(-18.58 -9.18)"/><path class="cls-8" d="M162,83.92c1.91,2.93-1.13,4.18-2.09,6.14a45.41,45.41,0,0,1-11-2.86,1.45,1.45,0,0,0-2-.2c-1.2-.23-3,0-2.17-2.14.59-1.51,1.21-3.22,3.45-2.9Z" transform="translate(-18.58 -9.18)"/><path class="cls-6" d="M152,27v9.31C146.67,31.09,142.78,25.56,136,24v0q0-.48,0-1h0l10,0C148.09,24.19,150.62,24.73,152,27Z" transform="translate(-18.58 -9.18)"/><path class="cls-11" d="M37,84c-3.07,1-4.71,4.29-8,5-.27-2.32,2-4.69-.16-7,3.73-.93,5.26-4.66,4.08-10,2-.09,2-2.1,3-3.18L37.06,70C37.15,74.68,34.5,79.33,37,84Z" transform="translate(-18.58 -9.18)"/><path class="cls-12" d="M35.95,68.92C35,70,35,72,33,72.1l-1.08-.86-1.81-.06-.87.14L33,64l6-9h0l2.2-.9a8.3,8.3,0,0,1,.12.91L41,57.47l.11.27C39,58.9,38.43,60.89,38,63L38,65.27a1.06,1.06,0,0,1,0,.56A3.37,3.37,0,0,0,35.95,68.92Z" transform="translate(-18.58 -9.18)"/><path class="cls-13" d="M167,156.16l1.07-.37c1.77,2.31,4.73,2.48,7,3.88l2.06,3.7c-1.69,3.66-4,2.15-6.31.76.17-.4.58-.87-.16-1.08-.13,0-.4.42-.6.66l-3.86-2.29L166,160v-2Z" transform="translate(-18.58 -9.18)"/><path class="cls-14" d="M138,53l1,2c-2.11,1.88-1.63,4.81-2.85,7-.42-8.71-3.11-11.85-10.25-12L125,49c3.71.65,5.17-2.36,7.21-4.43a7.92,7.92,0,0,1,.93.35Z" transform="translate(-18.58 -9.18)"/><path class="cls-15" d="M125.91,50.08c7.14.11,9.83,3.25,10.25,12L134,65c-1.44-5.39-3.08-10.67-8-14.1A7.65,7.65,0,0,1,125.91,50.08Z" transform="translate(-18.58 -9.18)"/><path class="cls-7" d="M166,160l.18,1.41-1.11,1.67c-.3,0-.84-.12-.88,0-.27.69.35.74.76.93a10.89,10.89,0,0,1-4.59,7.19l-4.75-2.42a44.5,44.5,0,0,0,7.19-10.08A2.49,2.49,0,0,0,166,160Z" transform="translate(-18.58 -9.18)"/><path class="cls-16" d="M31.9,71.24,33,72.1c1.18,5.29-.35,9-4.08,10L27,80a1.56,1.56,0,0,0-.09-2c0-2.49,1.71-4.36,2.3-6.64l.87-.14Z" transform="translate(-18.58 -9.18)"/><path class="cls-5" d="M155.6,168.76l4.75,2.42c-2,3.12-5.26,4.71-7.93,7-1.32-2.08-3.75-1.71-5.64-2.54C149.65,173.26,152.26,170.55,155.6,168.76Z" transform="translate(-18.58 -9.18)"/><path class="cls-17" d="M166.9,76.15c-1.65-2.26-1.16-4.31,1.29-5.21,2.61-1,2.72,1.83,3.42,3.27.91,1.88,2,3.91.57,6.08-.8-1.84-2.36-2.3-4.17-2.31C167.8,77.27,169.12,75.65,166.9,76.15Z" transform="translate(-18.58 -9.18)"/><path class="cls-18" d="M107.07,9.88A23.3,23.3,0,0,1,92,10a5.4,5.4,0,0,0,.4-.77C97.25,10,102.21,8.73,107.07,9.88Z" transform="translate(-18.58 -9.18)"/><path class="cls-19" d="M134.88,108c-2,2.59-3.06,5.94-6,7.86L128,115l5.09-9.88,1.78-.58a1.24,1.24,0,0,1,.16.5Z" transform="translate(-18.58 -9.18)"/><path class="cls-20" d="M20.76,132.37c3.53,0,2.79-2.71,3.15-4.79.1-.56,0-3.57,1.23-.31.47,3.18-.24,6.58,1.79,9.46l.07.12L24,137a3.14,3.14,0,0,0-2-3C21.09,133.83,20.91,133.11,20.76,132.37Z" transform="translate(-18.58 -9.18)"/><path class="cls-21" d="M126,79c.61-1.54,1.78-1.37,3-1,1,1.65,2.57,3,2.86,5.07l-.78,1.7L131,86.13Z" transform="translate(-18.58 -9.18)"/><path class="cls-22" d="M135,90.93A19.82,19.82,0,0,1,135,105a1.21,1.21,0,0,0-.16-.49,5.08,5.08,0,0,0-1-3.63l.05-5.74a5.22,5.22,0,0,0,.94-3.66A2.52,2.52,0,0,0,135,90.93Z" transform="translate(-18.58 -9.18)"/><path class="cls-23" d="M131,86.13l.14-1.36,1.07-1A11.18,11.18,0,0,1,135,90.93a2.47,2.47,0,0,1-.22.57l-.87.52-.79,0Z" transform="translate(-18.58 -9.18)"/><path class="cls-24" d="M123.35,22.22c-1.44-.93-3.34-1.27-4.31-3.51,2.07.06,3.92,1.07,5.74.31.52.79,1.59,1.71,1.43,2.35C125.88,22.78,124.36,22,123.35,22.22Z" transform="translate(-18.58 -9.18)"/><path class="cls-9" d="M151.08,57a19.11,19.11,0,0,1,0,13.05l-.94-1a13.45,13.45,0,0,0,.06-7.22c1.1-1.49.84-3.11.48-4.75Z" transform="translate(-18.58 -9.18)"/><path class="cls-25" d="M168,78c1.81,0,3.37.47,4.17,2.31a.64.64,0,0,1-.37.62c-1.08-.26-1.59.23-1.66,1.28h0l-2-1.2-.19-1.74Z" transform="translate(-18.58 -9.18)"/><path class="cls-26" d="M123,27c-1.07-.09-2.35.24-3-.88-.4-.71.44-1,1-1.28,1.37.22,2.83.18,4,1.16a1.2,1.2,0,0,1,0,.5A1.73,1.73,0,0,0,123,27Z" transform="translate(-18.58 -9.18)"/><path class="cls-27" d="M154.1,44.75l.75-1.72L156,44l.57,1.13L157,47l-.88.56-1-.54a1.59,1.59,0,0,0-1.19-1.87Z" transform="translate(-18.58 -9.18)"/><path class="cls-28" d="M177.11,163.37l-2.06-3.7c1.59.22,3.13.54,4.19,1.86C179,162.75,178,163,177.11,163.37Z" transform="translate(-18.58 -9.18)"/><path class="cls-3" d="M21.09,147c1,1.92,1.26,3.69-1,5Z" transform="translate(-18.58 -9.18)"/><path class="cls-5" d="M22,134a3.14,3.14,0,0,1,2,3L24,139a5.37,5.37,0,0,0-.73.2L23,139C23,137.29,23.31,135.48,22,134Z" transform="translate(-18.58 -9.18)"/><path class="cls-8" d="M33.54,161,36,163l-.07,3.2Z" transform="translate(-18.58 -9.18)"/><path class="cls-29" d="M168,78l-.11,1.28c-1.22-.75-.9-2-1-3.11C169.12,75.65,167.8,77.27,168,78Z" transform="translate(-18.58 -9.18)"/><path class="cls-3" d="M150.65,57.09c.35,1.64.62,3.26-.48,4.75l-.36-3.51Z" transform="translate(-18.58 -9.18)"/><path class="cls-30" d="M26.91,78A1.56,1.56,0,0,1,27,80C26.15,79.35,26.1,78.67,26.91,78Z" transform="translate(-18.58 -9.18)"/><path class="cls-31" d="M21.07,119c.42,1,1.68,2-.13,2.89Z" transform="translate(-18.58 -9.18)"/><path class="cls-14" d="M179.41,132.67l-.41-.22.4-.59c.08.14.22.27.22.41S179.49,132.54,179.41,132.67Z" transform="translate(-18.58 -9.18)"/><path class="cls-32" d="M148.1,76.92c.21-.67,0-1.62,1.43-1.76l-.6,1.76Z" transform="translate(-18.58 -9.18)"/><path class="cls-33" d="M156.11,47.56,157,47a6.7,6.7,0,0,1,1,.12c-.23.52-.34,1.36-.7,1.49C156.6,48.85,156.23,48.21,156.11,47.56Z" transform="translate(-18.58 -9.18)"/><path class="cls-34" d="M73.11,213H75c.53,1.1.51,1.93-1,2Z" transform="translate(-18.58 -9.18)"/><path class="cls-35" d="M150.1,69.06l.94,1c-.12.41-.24,1.14-.74.74C150,70.54,150.15,69.66,150.1,69.06Z" transform="translate(-18.58 -9.18)"/><path class="cls-36" d="M170,137l2.24-1-1.35,1.81Z" transform="translate(-18.58 -9.18)"/><path class="cls-17" d="M168.09,81l2,1.2C168.6,83.23,168.23,82.31,168.09,81Z" transform="translate(-18.58 -9.18)"/><path class="cls-37" d="M164.94,164c-.41-.19-1-.24-.76-.93,0-.09.57,0,.88,0A1.59,1.59,0,0,1,164.94,164Z" transform="translate(-18.58 -9.18)"/><path class="cls-25" d="M170,163.71c.2-.23.47-.69.6-.66.74.2.34.68.16,1.08A.87.87,0,0,1,170,163.71Z" transform="translate(-18.58 -9.18)"/><path class="cls-19" d="M170,137l.89.77-1.29.41-.33,0-.16-1A8.47,8.47,0,0,0,170,137Z" transform="translate(-18.58 -9.18)"/><path class="cls-17" d="M170.14,82.2c.07-1.05.58-1.54,1.66-1.28Z" transform="translate(-18.58 -9.18)"/><path class="cls-22" d="M22.1,143l.81.8-1.09,0A.76.76,0,0,1,22.1,143Z" transform="translate(-18.58 -9.18)"/><path class="cls-38" d="M112.18,11.7c-.3.09-.81.34-.87.26-.47-.67.21-.72.57-.94A.84.84,0,0,1,112.18,11.7Z" transform="translate(-18.58 -9.18)"/><path class="cls-8" d="M58.73,187.17A2.81,2.81,0,0,1,61,189Z" transform="translate(-18.58 -9.18)"/><path class="cls-39" d="M148.1,76.92h.83l-.64,1.17Z" transform="translate(-18.58 -9.18)"/><path class="cls-34" d="M72.06,207l.82,3.31C71.92,209.4,72,208.2,72.06,207Z" transform="translate(-18.58 -9.18)"/><path class="cls-40" d="M127.08,214.27,128,211C128.12,212.21,128.48,213.49,127.08,214.27Z" transform="translate(-18.58 -9.18)"/><path class="cls-41" d="M160.07,94a2,2,0,0,1-.44,2.94Z" transform="translate(-18.58 -9.18)"/><path class="cls-42" d="M83.91,217.91l-1.82-.13a2.2,2.2,0,0,0-.33-.76C82.67,216.84,83.63,216.57,83.91,217.91Z" transform="translate(-18.58 -9.18)"/><path class="cls-39" d="M150,52.1a2.27,2.27,0,0,1-.89-2.12Z" transform="translate(-18.58 -9.18)"/><path class="cls-8" d="M37.76,169.05,39,170.84Z" transform="translate(-18.58 -9.18)"/><path class="cls-39" d="M149,49.94,148.19,48Z" transform="translate(-18.58 -9.18)"/><path class="cls-43" d="M157.14,104.05l.16.82-.45-.08A1.09,1.09,0,0,1,157.14,104.05Z" transform="translate(-18.58 -9.18)"/><path class="cls-29" d="M25.16,102A1.57,1.57,0,0,1,25,104Z" transform="translate(-18.58 -9.18)"/><path class="cls-44" d="M147,87a1.45,1.45,0,0,1,2,.2Z" transform="translate(-18.58 -9.18)"/><path class="cls-39" d="M157.95,47.13a6.7,6.7,0,0,0-1-.12l-.41-1.89Z" transform="translate(-18.58 -9.18)"/><path class="cls-31" d="M151.2,179.11c-.06-.81.5-.89,1.1-.92Z" transform="translate(-18.58 -9.18)"/><path class="cls-39" d="M153.93,45.15A1.59,1.59,0,0,1,155.12,47Z" transform="translate(-18.58 -9.18)"/><path class="cls-45" d="M132.17,83.78l-1.07,1,.78-1.71A1,1,0,0,1,132.17,83.78Z" transform="translate(-18.58 -9.18)"/><path class="cls-39" d="M156,42l.19,1c-.05.32-.11.64-.18,1l-1.16-1,.19-1Z" transform="translate(-18.58 -9.18)"/><path class="cls-40" d="M134.84,194.95a1.45,1.45,0,0,1,.64-1.91Z" transform="translate(-18.58 -9.18)"/><path class="cls-34" d="M70.1,202l.84,2.14Z" transform="translate(-18.58 -9.18)"/><path class="cls-46" d="M172.74,136.07l1.32-.92,0,1C173.55,136.85,173.15,136.37,172.74,136.07Z" transform="translate(-18.58 -9.18)"/><path class="cls-47" d="M174,136.17l0-1c.75-.06,1.48-.06,1.83.8Z" transform="translate(-18.58 -9.18)"/><path class="cls-11" d="M77.11,215.93c.72-1,1.31-.31,1.91.15Z" transform="translate(-18.58 -9.18)"/><path class="cls-48" d="M121,217.16l-1-.47,0-.38,2.1-.32Z" transform="translate(-18.58 -9.18)"/><path class="cls-49" d="M94,221.14a6.93,6.93,0,0,0-.91-.2c.71-1.05,1.31-.38,1.93.12Z" transform="translate(-18.58 -9.18)"/><path class="cls-13" d="M150,128A56.47,56.47,0,0,1,130,136.87a1.52,1.52,0,0,0-1.94.2c-4.82,2-9.89,2.25-15,1.94q0-.5-.05-1c.92-1.56,2.52-2.21,4-3H119c11.88-1.23,23-4.71,32.93-11.49,1.57-1.07,2.81-3,5.16-2.41l-5.35,5.74Z" transform="translate(-18.58 -9.18)"/><path class="cls-11" d="M102.92,172a1.39,1.39,0,0,1,.13.94c-1,1.34-.71,2.34.81,3l.22,1A2.31,2.31,0,0,0,104,180l1.05,5.11a15.23,15.23,0,0,1-1,5.93c-.39.24-1.14.51-1.13.72.55,7.71-1,15.51,1,23.16.15,2.05.19,4.09-.95,5.94-.18-.65.28-1.51-.81-2.08l-.19,2.32-1,.18-.1-9.37q0-10.94,0-21.89v-2l.08-10c-.43-.61,1.33-2.36-1-2L99,176l1.19-6h.83l1,2h.86Z" transform="translate(-18.58 -9.18)"/><path class="cls-50" d="M169.12,137.17l.16,1c-2.3-1.21-2.1-3.41-2.32-5.55-.7-6.67-1.09-13.43-4-19.67l-.06-1a1.31,1.31,0,0,0,.23-.76l2.9-8.15a33.34,33.34,0,0,1,1.75,11.73C167.79,122.3,169,129.7,169.12,137.17Z" transform="translate(-18.58 -9.18)"/><path class="cls-8" d="M105,185.15,104,180l.75-1.94c1.38,2.81,2.34,5.85,4.74,8.37L121,182.1c1.36,2.31,1,4-1.71,4.91s-5.24,1.85-7.88,2.75C107.11,191.23,107,186.87,105,185.15Z" transform="translate(-18.58 -9.18)"/><path class="cls-33" d="M134,154.83,143,148l1.31,1.31c-2.57,3.71-6.41,5.76-10.21,7.86Z" transform="translate(-18.58 -9.18)"/><path class="cls-51" d="M103.93,215c-2-7.64-.44-15.45-1-23.16,0-.21.73-.48,1.13-.72Z" transform="translate(-18.58 -9.18)"/><path class="cls-5" d="M123.92,165c1.86-3.93,5.29-6.21,8.82-8.39l.29,1.21-7.67,7.29Z" transform="translate(-18.58 -9.18)"/><path class="cls-52" d="M166,160a2.49,2.49,0,0,1-3.2-1.33l.35-3.64q.38,0,.76-.12L166,158Z" transform="translate(-18.58 -9.18)"/><path class="cls-53" d="M163.9,154.93q-.38.08-.76.12a1.48,1.48,0,0,1-.47-.2l.26-1.78q0-.57,0-1.13,0-.92,0-1.85t0-2.14l-.14-3.85.42,0,.92,2.06q0,.9,0,1.8l0,5.91Z" transform="translate(-18.58 -9.18)"/><path class="cls-54" d="M163.9,154.93l.24-1c.95-1.54.8-3.28.91-5,1.83,2.1.18,5.13,1.93,7.25L166,158Z" transform="translate(-18.58 -9.18)"/><path class="cls-55" d="M150,128l1.77-1.16c0,2.74,1,5.58-.9,8.11l-.72,0C150.67,132.68,151.28,130.33,150,128Z" transform="translate(-18.58 -9.18)"/><path class="cls-30" d="M144.32,149.33,143,148a6.39,6.39,0,0,1,3-2.87l.77.8A6.72,6.72,0,0,1,144.32,149.33Z" transform="translate(-18.58 -9.18)"/><path class="cls-55" d="M120.11,178.79c-.06-2.33-.75-4.74.84-6.87l.89,1.95C121.08,175.45,121.53,177.45,120.11,178.79Z" transform="translate(-18.58 -9.18)"/><path class="cls-56" d="M147.13,144.08c.3-1.8.38-3.76,2.86-4-.5,1.5-.76,3.14-2.37,4A.37.37,0,0,1,147.13,144.08Z" transform="translate(-18.58 -9.18)"/><path class="cls-48" d="M164.14,146.17l-.92-2.06L163,141l.87,0,1,5.12Z" transform="translate(-18.58 -9.18)"/><path class="cls-31" d="M165,148.9c-.1,1.69,0,3.44-.91,5q0-3,0-5.91l.76,0A1.72,1.72,0,0,1,165,148.9Z" transform="translate(-18.58 -9.18)"/><path class="cls-57" d="M150.16,135l.72,0c.15,1.54.27,3.07-.92,4.33C148.67,137.82,150.21,136.46,150.16,135Z" transform="translate(-18.58 -9.18)"/><path class="cls-58" d="M121.17,171l1-2.91.87.93-1,2Q121.6,171,121.17,171Z" transform="translate(-18.58 -9.18)"/><path class="cls-59" d="M118,217.77l-4,1.08q0-.31.07-.62l-.2-.37L118,217Q118,217.41,118,217.77Z" transform="translate(-18.58 -9.18)"/><path class="cls-60" d="M162.8,144.09l.14,3.85A3.28,3.28,0,0,1,162.8,144.09Z" transform="translate(-18.58 -9.18)"/><path class="cls-61" d="M123.92,165l1.43.12L124,167l-1.33,0Z" transform="translate(-18.58 -9.18)"/><path class="cls-43" d="M102,221.13l.19-2.32c1.1.58.64,1.43.81,2.08Z" transform="translate(-18.58 -9.18)"/><path class="cls-25" d="M133,157.79l-.29-1.21,1.22-1.75.15,2.37Z" transform="translate(-18.58 -9.18)"/><path class="cls-62" d="M147.13,144.08a.37.37,0,0,0,.48,0l-.78,1.92-.77-.8Z" transform="translate(-18.58 -9.18)"/><path class="cls-63" d="M121.17,171q.44,0,.87,0l-.2,2.85-.89-1.95A3.2,3.2,0,0,1,121.17,171Z" transform="translate(-18.58 -9.18)"/><path class="cls-64" d="M118,217.77q0-.36,0-.72l2-.74,0,.38Z" transform="translate(-18.58 -9.18)"/><path class="cls-65" d="M122.67,167l1.33,0-1,2-.87-.93Z" transform="translate(-18.58 -9.18)"/><path class="cls-45" d="M164.92,148l-.76,0q0-.9,0-1.8l.72-.06Z" transform="translate(-18.58 -9.18)"/><path class="cls-60" d="M162.91,150.08q0,.92,0,1.85A1.43,1.43,0,0,1,162.91,150.08Z" transform="translate(-18.58 -9.18)"/><path class="cls-17" d="M160,117l.68-.92Z" transform="translate(-18.58 -9.18)"/><path class="cls-60" d="M162.93,153.06l-.26,1.78Z" transform="translate(-18.58 -9.18)"/><path class="cls-66" d="M157.9,120.87l1-1.13C158.85,120.35,158.68,120.9,157.9,120.87Z" transform="translate(-18.58 -9.18)"/><path class="cls-67" d="M127.18,203.08A1.52,1.52,0,0,1,127,205Z" transform="translate(-18.58 -9.18)"/><path class="cls-68" d="M163.83,141l-.87,0,.62-.75Z" transform="translate(-18.58 -9.18)"/><path class="cls-66" d="M112,218.15a1.38,1.38,0,0,1,1.82-.3l.2.37Z" transform="translate(-18.58 -9.18)"/><path class="cls-55" d="M112,218.15l2,.07q0,.31-.07.62l-2,.2A7.66,7.66,0,0,0,112,218.15Z" transform="translate(-18.58 -9.18)"/><path class="cls-69" d="M112.07,219l-2.1,1.16C110.36,219.16,111.33,219.27,112.07,219Z" transform="translate(-18.58 -9.18)"/><path class="cls-68" d="M108.93,221l-2,.31C107.5,220.51,108.08,219.85,108.93,221Z" transform="translate(-18.58 -9.18)"/><path class="cls-70" d="M35.13,147a1.11,1.11,0,0,0-.21.75L34,149l-1,1h-.85l-.36-10.95c.58-3.34,1.63-6.63,1.16-10.09a9.18,9.18,0,0,0,.34-4.88L34,122l0-2,2.57-8.46L41,119.06c-2.65,2.94-2.72,6.66-2.91,10.26A42.21,42.21,0,0,1,36,141l-.24,2.79A6.44,6.44,0,0,1,35,144l-.31-.38L35,144Z" transform="translate(-18.58 -9.18)"/><path class="cls-5" d="M91,190l-7.09-3c1.91,0,3.78-.22,5.12-1.85,3,1.52,5.52,1.27,7-2.21l1-2.08.7-1L99,180,98.73,181l-.69,2L98,185c-2,2.16-2.66,6.14-7,5Z" transform="translate(-18.58 -9.18)"/><path class="cls-71" d="M99,192.94q0,13.06,0,26.11A74.12,74.12,0,0,1,99,192.94Z" transform="translate(-18.58 -9.18)"/><path class="cls-52" d="M89,185.2c-1.34,1.62-3.2,1.81-5.12,1.85-2.34-.36-4.41-.92-2.8-4l2.17-.15Z" transform="translate(-18.58 -9.18)"/><path class="cls-71" d="M98.73,181,99,180l.09-2.06-.1.14a3,3,0,0,0,.86-.17l1.09.12-.08,10H99l-1-3,.07-1.9Z" transform="translate(-18.58 -9.18)"/><path class="cls-72" d="M62.95,154.08a9.36,9.36,0,0,1-4.8-4.2l.8-.75c2.17.69,3.69,2.33,5.43,3.66Z" transform="translate(-18.58 -9.18)"/><path class="cls-17" d="M77.81,166.28a17.21,17.21,0,0,1-4.92-5.16l.34-.4,1.71-.31c1.1,1.42,2.81,2.41,3.12,4.4Z" transform="translate(-18.58 -9.18)"/><path class="cls-58" d="M62.95,154.08l1.43-1.29,4.6,3.5-1.24.87Z" transform="translate(-18.58 -9.18)"/><path class="cls-17" d="M67.74,157.16l1.24-.87L73.11,159l.11,1.76-.34.4A15.9,15.9,0,0,1,67.74,157.16Z" transform="translate(-18.58 -9.18)"/><path class="cls-73" d="M81,177,80.07,172l1.15-1.29.95,1.31-.28,5Z" transform="translate(-18.58 -9.18)"/><path class="cls-74" d="M48.08,126.74A7,7,0,0,1,49,127l.11,6.88L49,134C47.61,131.72,48.09,129.2,48.08,126.74Z" transform="translate(-18.58 -9.18)"/><path class="cls-51" d="M52.72,143,51.18,140l1.25-.1L54,143Z" transform="translate(-18.58 -9.18)"/><path class="cls-8" d="M37,158c-1.22-2-.95-4.13-.91-6.27C37.13,153.7,36.74,155.89,37,158Z" transform="translate(-18.58 -9.18)"/><path class="cls-75" d="M60.82,181.11a8.21,8.21,0,0,1-3.2-3C59.25,178.5,61.27,178.49,60.82,181.11Z" transform="translate(-18.58 -9.18)"/><path class="cls-76" d="M50,137.94c-1.71-1-.75-2.61-1-4l.08-.1L50,134Z" transform="translate(-18.58 -9.18)"/><path class="cls-8" d="M35,144a6.47,6.47,0,0,0,.74-.25l1,.32-.07,1.84-1,1.06h-.63l-.1-3Z" transform="translate(-18.58 -9.18)"/><path class="cls-18" d="M56.07,147.82A3.54,3.54,0,0,1,54.23,145l.66.06a3.55,3.55,0,0,1,2.06,2Z" transform="translate(-18.58 -9.18)"/><path class="cls-41" d="M81.21,170.66,80.07,172,79,169l1.08-1.16Z" transform="translate(-18.58 -9.18)"/><path class="cls-77" d="M81,177l.89-.05.22,5-1,.14Z" transform="translate(-18.58 -9.18)"/><path class="cls-73" d="M50,137.94q0-2,0-3.95l.86,0,.18,2.76-.19,1.4Z" transform="translate(-18.58 -9.18)"/><path class="cls-44" d="M58.95,149.13l-.8.75-1.19-.8,1-1.07Z" transform="translate(-18.58 -9.18)"/><path class="cls-33" d="M80.06,167.85,79,169l-1-2,1-1Z" transform="translate(-18.58 -9.18)"/><path class="cls-29" d="M54.89,145l-.66-.06L52.72,143,54,143Z" transform="translate(-18.58 -9.18)"/><path class="cls-34" d="M75,208a6.57,6.57,0,0,1-.87-4.41q.35.3.72.57L75,206Z" transform="translate(-18.58 -9.18)"/><path class="cls-78" d="M36.81,144.1l-1-.32L36,141A3,3,0,0,1,36.81,144.1Z" transform="translate(-18.58 -9.18)"/><path class="cls-41" d="M50.88,138.19l.19-1.4c1.09.75.94,2,1.36,3.09l-1.25.1Z" transform="translate(-18.58 -9.18)"/><path class="cls-79" d="M54.86,176.09l-1-.88,1.17,0Z" transform="translate(-18.58 -9.18)"/><path class="cls-34" d="M74,203l-.94-3Z" transform="translate(-18.58 -9.18)"/><path class="cls-80" d="M75,206l-.11-1.85C76.47,204.69,75.28,205.38,75,206Z" transform="translate(-18.58 -9.18)"/><path class="cls-81" d="M85,216.94c.77-1.43,1.37-.73,2,.14Z" transform="translate(-18.58 -9.18)"/><path class="cls-44" d="M57.95,148l-1,1.07-.89-1.26.88-.81Z" transform="translate(-18.58 -9.18)"/><path class="cls-78" d="M35.75,147l1-1.06-.55,2.19Z" transform="translate(-18.58 -9.18)"/><path class="cls-8" d="M37,161l.1-2.42,1,2.38Z" transform="translate(-18.58 -9.18)"/><path class="cls-8" d="M38.93,163l-.9-2Z" transform="translate(-18.58 -9.18)"/><path class="cls-61" d="M79,166l-1,1a1.65,1.65,0,0,1-.21-.71l.25-1.47Z" transform="translate(-18.58 -9.18)"/><path class="cls-72" d="M81.07,182.06l1-.14A3.41,3.41,0,0,0,83,182q.16.42.29.84l-2.17.15A2.6,2.6,0,0,1,81.07,182.06Z" transform="translate(-18.58 -9.18)"/><path class="cls-82" d="M91,190l-.36.3L91,190Z" transform="translate(-18.58 -9.18)"/><path class="cls-83" d="M85,216.94l2,.14-2,1,0,0Z" transform="translate(-18.58 -9.18)"/><path class="cls-49" d="M87.91,219c.67-1,1.36-.49,2.05,0l.07,0-2.06.09Z" transform="translate(-18.58 -9.18)"/><path class="cls-43" d="M92,220.09l-1.76-.29A2.1,2.1,0,0,0,90,219L90,219Z" transform="translate(-18.58 -9.18)"/><path class="cls-48" d="M97,222h-.44l-.44,0,.45-.76Z" transform="translate(-18.58 -9.18)"/><path class="cls-71" d="M99,219.94l-.88,2Z" transform="translate(-18.58 -9.18)"/><path class="cls-84" d="M83.25,182.86q-.13-.42-.29-.84c2.12-3.54.21-6.76-.8-10l-.95-1.31-1.15-2.81L79,166l-1-1.17c-.31-2-2-3-3.12-4.4L73.11,159,69,156.29l-4.6-3.5c-1.73-1.33-3.26-3-5.43-3.66l-1-1.11-1-1a3.55,3.55,0,0,0-2.06-2l-.9-2-1.56-3.12c-.42-1-.27-2.34-1.36-3.09L50.89,134c.14-1.73-.56-3.65,1.11-5a1.45,1.45,0,0,0,.72.17c2,2.11,4.7,2.81,7.31,3.72a1.1,1.1,0,0,0,.74.25c3.06,2.23,6.71,2.87,10.27,3.72L73,137c4.14,2,8.61,1.82,13,2,1,.52,2,.82,3-.13l2.93-1,1.08.25a15.84,15.84,0,0,0,5,6.95q0,.94.06,1.89l1,2a3.06,3.06,0,0,0,2,2l-1,5,1.25,2.2-.13,4.84,0,3.94-.93,3.1L99,176l-.09,2,.1-.14c-1.15.17-1.1,1.2-1.39,2l-.7,1L96,183c-1.46,3.48-3.94,3.73-7,2.21Z" transform="translate(-18.58 -9.18)"/><path class="cls-12" d="M26.93,136.73c-2-2.88-1.32-6.28-1.79-9.46l1-3.22L27,124c.13.1.24.25.38.28s.38-.07.39-.14c.33-3,2-6.11-.49-9a1.47,1.47,0,0,0-.48-.19l1.14-13,1-1A2.2,2.2,0,0,0,29,98c0-1.46.36-2.73,1.94-3.26a1.32,1.32,0,0,0,.72.45L33,98l-.16,1.13a36.19,36.19,0,0,0-1.42,4.43c-.27,1.41.55,1.08,1.28.52A7,7,0,0,0,33,105c0,6.35-1.67,12.62-.86,19L32,129c-1.38,2.58,0,5.84-2.08,8.25a1.53,1.53,0,0,0-.9-.33A1.93,1.93,0,0,0,26.93,136.73Z" transform="translate(-18.58 -9.18)"/><path class="cls-85" d="M93,138.16l-1.08-.25-.74-4,.87-1.83v0L94,132h2l0,1Z" transform="translate(-18.58 -9.18)"/><path class="cls-86" d="M52,129c-1.67,1.39-1,3.31-1.11,5L50,134l-.93-.11Q49,130.45,49,127l1,0Z" transform="translate(-18.58 -9.18)"/><path class="cls-28" d="M54.31,82.89c4.08,5.27-1,3.79-3.26,4.43,1.1-1.23,3.09-2.06,1.94-4.31Z" transform="translate(-18.58 -9.18)"/><path class="cls-20" d="M52,129l-2-2c2.06-.71,3.23-.31,2.72,2.18A1.45,1.45,0,0,1,52,129Z" transform="translate(-18.58 -9.18)"/><path class="cls-87" d="M33,105a6.87,6.87,0,0,1-.29-.93q.07-2.47.13-4.94L33,98l1.1,1.11q0,1.86.07,3.73Z" transform="translate(-18.58 -9.18)"/><path class="cls-88" d="M32,129l.11-5,1.14.09a9.18,9.18,0,0,1-.34,4.88Z" transform="translate(-18.58 -9.18)"/><path class="cls-38" d="M89,138.93c-1,.95-2,.65-3,.13A2.27,2.27,0,0,1,89,138.93Z" transform="translate(-18.58 -9.18)"/><path class="cls-38" d="M38.09,84h3.83a3.12,3.12,0,0,1-3.87,0Z" transform="translate(-18.58 -9.18)"/><path class="cls-30" d="M45,83.09,50,82.84A4,4,0,0,1,45,83.09Z" transform="translate(-18.58 -9.18)"/><path class="cls-18" d="M34.18,102.84q0-1.87-.07-3.73A3.12,3.12,0,0,1,34.18,102.84Z" transform="translate(-18.58 -9.18)"/><path class="cls-67" d="M31.69,95.21a1.32,1.32,0,0,1-.72-.45c0-.45-.23-1.2.43-1.07C32.35,93.86,32,94.62,31.69,95.21Z" transform="translate(-18.58 -9.18)"/><path class="cls-89" d="M51.33,114.82l2.2,2.08C52.42,116.61,50.78,116.87,51.33,114.82Z" transform="translate(-18.58 -9.18)"/><path class="cls-29" d="M73,137,71,136.86C71.71,136.54,72.43,135.62,73,137Z" transform="translate(-18.58 -9.18)"/><path class="cls-39" d="M29,98a2.2,2.2,0,0,1-.12,3Z" transform="translate(-18.58 -9.18)"/><path class="cls-67" d="M40,94.93l-.29,1.28c-.72-.62.23-.84.3-1.26Z" transform="translate(-18.58 -9.18)"/><path class="cls-30" d="M47.31,110.82l1.13,1.09C47.83,111.78,47.24,111.64,47.31,110.82Z" transform="translate(-18.58 -9.18)"/><path class="cls-90" d="M34,120l0,2A1.54,1.54,0,0,1,34,120Z" transform="translate(-18.58 -9.18)"/><path class="cls-28" d="M57.93,120.86c.41-.46.77-.38,1.08.11Z" transform="translate(-18.58 -9.18)"/><path class="cls-29" d="M60.77,133.14a1.1,1.1,0,0,1-.74-.25C60.34,132.8,60.85,132.1,60.77,133.14Z" transform="translate(-18.58 -9.18)"/><path class="cls-91" d="M90.93,133.32l.22-1.24.89,0-.87,1.83A.67.67,0,0,1,90.93,133.32Z" transform="translate(-18.58 -9.18)"/><path class="cls-61" d="M54.31,82.89,53,83l-1-.89C53,81.87,53.82,81.83,54.31,82.89Z" transform="translate(-18.58 -9.18)"/><path class="cls-15" d="M109.94,138.05c-2.13-.53-2.58-2.68-3.87-4l0-2.06,2-1,4.07,2.17q-.16.4-.34.79A4.22,4.22,0,0,0,109.94,138.05Z" transform="translate(-18.58 -9.18)"/><path class="cls-43" d="M121.06,131.14a1.51,1.51,0,0,1,.83-.19l.61.5Z" transform="translate(-18.58 -9.18)"/><path class="cls-92" d="M151.1,113l.91-1h.91Z" transform="translate(-18.58 -9.18)"/><path class="cls-72" d="M152.91,112H152l.93-1Z" transform="translate(-18.58 -9.18)"/><path class="cls-33" d="M163.16,111.21a1.31,1.31,0,0,1-.23.76l-.23-.82Z" transform="translate(-18.58 -9.18)"/><path class="cls-73" d="M114.56,132.91l2.31-.66Z" transform="translate(-18.58 -9.18)"/><path class="cls-73" d="M119,135H117A1.55,1.55,0,0,1,119,135Z" transform="translate(-18.58 -9.18)"/><path class="cls-73" d="M112.94,138q0,.5.05,1l-2.15-.95Z" transform="translate(-18.58 -9.18)"/><path class="cls-73" d="M111.76,133.91q.18-.39.34-.79h1.84Z" transform="translate(-18.58 -9.18)"/><path class="cls-76" d="M81,25c-.89,1.66-2.7,1.4-4.11,2-1.31-1.28-2.61-1-3.9,0-1.74.44-3.58.62-4.9,2l-.34-.12L66,30.06c-2.62,3.48-6.68,6-7.19,10.9L58,41a1.44,1.44,0,0,0-.16,1.9l0,1.09L57,45l-1.8-1.15-2.44-2.7c.28-.93-.24-.59-.66-.41L49,38.92c.68-4.9,5.3-7.55,6.8-12,2.52,1.9,3.35-.79,4.82-1.76L70.17,22H72C74.9,23.22,78.37,22.84,81,25Z" transform="translate(-18.58 -9.18)"/><path class="cls-17" d="M52.75,41.2l2.44,2.7L53,45l-.32-.38L53,45l-.08,1.2L50.09,44.7c-1.23-1-2.65-.61-4-.55L46,42a3.43,3.43,0,0,1,3-3l3.08,1.86A1.07,1.07,0,0,0,52.75,41.2Z" transform="translate(-18.58 -9.18)"/><path class="cls-93" d="M60.62,25.18c-1.46,1-2.3,3.66-4.82,1.76.42-1.32-.38-3,1.16-4l1.14-.11C59.64,22.88,59.92,24.25,60.62,25.18Z" transform="translate(-18.58 -9.18)"/><path class="cls-8" d="M46,42l.08,2.19-.19,1.42-1.8,1.52L42.88,47A10.92,10.92,0,0,1,46,42Z" transform="translate(-18.58 -9.18)"/><path class="cls-94" d="M46,48l-1.8,3.06L43,51l-.92-2.07,1.77.05Z" transform="translate(-18.58 -9.18)"/><path class="cls-90" d="M86.14,11l2.4.26A2.53,2.53,0,0,1,85,12Z" transform="translate(-18.58 -9.18)"/><path class="cls-38" d="M82.86,12.91c-.14,3.34-2.28.18-3.2,1C80.48,12.77,81.65,12.76,82.86,12.91Z" transform="translate(-18.58 -9.18)"/><path class="cls-95" d="M43.88,49l-1.77-.05L42.88,47l1.2.09Z" transform="translate(-18.58 -9.18)"/><path class="cls-56" d="M43.33,53,42,55a6,6,0,0,1-.71,0,8.3,8.3,0,0,0-.12-.91L42.06,53Z" transform="translate(-18.58 -9.18)"/><path class="cls-77" d="M43.33,53l-1.26,0,1-2,1.22,0Z" transform="translate(-18.58 -9.18)"/><path class="cls-62" d="M72,21.94H70.17c.09-.69-.07-1.51.9-1.75Z" transform="translate(-18.58 -9.18)"/><path class="cls-61" d="M58.11,22.85,57,23C57.3,22.46,57.68,22.4,58.11,22.85Z" transform="translate(-18.58 -9.18)"/><path class="cls-67" d="M109,19q0,.49,0,1l-2-.19C107.41,18.64,108.32,19.19,109,19Z" transform="translate(-18.58 -9.18)"/><path class="cls-89" d="M109,20h2l0,1.19L109,20.83Q109,20.43,109,20Z" transform="translate(-18.58 -9.18)"/><path class="cls-96" d="M100.94,21.83l-1.9.06A1.53,1.53,0,0,1,100.94,21.83Z" transform="translate(-18.58 -9.18)"/><path class="cls-96" d="M95.95,21.05l.36-.31-.37.3Z" transform="translate(-18.58 -9.18)"/><path class="cls-44" d="M104,21l-1.94.33A1.39,1.39,0,0,1,104,21Z" transform="translate(-18.58 -9.18)"/><path class="cls-3" d="M110,37.12,112,38a6.43,6.43,0,0,1,1,4,15.31,15.31,0,0,0-13,7c-2.66-4.65-7.7-5.23-12-7,.34-1.84,1.79-2.84,3-4l2-.89H94l2.06.85H96a5,5,0,0,0,6,0l2-.81c3.58,2.53,3.74,2.53,4,0Z" transform="translate(-18.58 -9.18)"/><path class="cls-34" d="M77.76,29.82,80,29c1,.79,2,1.89,3,0l-.07-.12L88.1,36.1l-1.12,2c-2.91.25-4.27-2-6-3.68a2.44,2.44,0,0,0-3.92-.1c-1.58,1.28-3.33,2.42-4,4.53a4.52,4.52,0,0,0-.16.93A6.51,6.51,0,0,0,68,44l-2.14,1.07L65,47l0,0c-2.14-.14-3.4-2.85-5.88-2l-.15.1L59.09,43l.9,0c2.08-1.52,5.38,1.06,7-2.07l.08.06a1.46,1.46,0,0,0,.1-1.88l.78-2.17,1.2-2.83,4-3,3.83-1.18C77.22,29.91,77.58,30.92,77.76,29.82Z" transform="translate(-18.58 -9.18)"/><path class="cls-57" d="M88.1,36.1l-5.17-7.21c.85-2.32,2.42-2.82,4.57-1.78L94,30.26V32c-1.25,1.44-3.43,1.91-4.09,4l-.37-.2Z" transform="translate(-18.58 -9.18)"/><path class="cls-97" d="M94,37.09H93L91,37.14l-1-.08-.45-1.27.37.2L98,33c4.2.7,8.74.41,11.92,4.09l-2,0h-4l-2,.81-6,0h.12C95.68,37,94.88,37,94,37.09Z" transform="translate(-18.58 -9.18)"/><path class="cls-98" d="M112,36l-6.47-4.76c2.09-3.12,5.46-3.34,8.43-4.31l1.13,0,2,1.92-1.26,2A15.49,15.49,0,0,0,112,36Z" transform="translate(-18.58 -9.18)"/><path class="cls-93" d="M112,36a15.48,15.48,0,0,1,3.84-5.16c1.38.24,2.81-.81,4.16.15h0l-1,2-1,1.13-2.24,3.76-2.9.15Z" transform="translate(-18.58 -9.18)"/><path class="cls-93" d="M123,30a10.84,10.84,0,0,1,6.19,3.55L128,36c-1.54-2.22-4-3.35-6-5a2.73,2.73,0,0,0,.64-.74Z" transform="translate(-18.58 -9.18)"/><path class="cls-39" d="M98,33l-8.13,3c.66-2,2.84-2.52,4.09-4q.49,0,1,0Z" transform="translate(-18.58 -9.18)"/><path class="cls-39" d="M73.11,31.07l-4,3-1.06-1a7.86,7.86,0,0,1,2.85-3.31,5.37,5.37,0,0,0,.94-.09Z" transform="translate(-18.58 -9.18)"/><path class="cls-46" d="M71.87,29.69a5.37,5.37,0,0,1-.94.09L68.09,29c1.32-1.42,3.16-1.61,4.9-2l.93.88Z" transform="translate(-18.58 -9.18)"/><path class="cls-16" d="M111,21.2,111,20c2,.08,3.52.88,4,3Z" transform="translate(-18.58 -9.18)"/><path class="cls-21" d="M120,31c-1.36-1-2.78.09-4.16-.15l1.26-2,2.9.26Z" transform="translate(-18.58 -9.18)"/><path class="cls-21" d="M128,36l1.19-2.46,1.9,1.41q0,.43,0,.86L131,37l-3-1Z" transform="translate(-18.58 -9.18)"/><path class="cls-68" d="M73.93,27.87,73,27c1.29-1,2.59-1.32,3.9,0Z" transform="translate(-18.58 -9.18)"/><path class="cls-93" d="M120,31V29.1l3,.9-.35.26L121,31h-1Z" transform="translate(-18.58 -9.18)"/><path class="cls-38" d="M83,29c-1,1.92-2,.82-3,0Z" transform="translate(-18.58 -9.18)"/><path class="cls-32" d="M131.08,35.81q0-.43,0-.86l1.09.05a1.83,1.83,0,0,1,.64,2.05,2,2,0,0,1-.5,0Z" transform="translate(-18.58 -9.18)"/><path class="cls-99" d="M115.08,26.91l-1.13,0Z" transform="translate(-18.58 -9.18)"/><path class="cls-100" d="M123,27a1.73,1.73,0,0,1,2-.52,8.27,8.27,0,0,0-.12.9Z" transform="translate(-18.58 -9.18)"/><path class="cls-44" d="M77.76,29.82c-.18,1.1-.54.09-.82.07A1,1,0,0,1,77.76,29.82Z" transform="translate(-18.58 -9.18)"/><path class="cls-36" d="M95,32q-.5,0-1,0V30.26Z" transform="translate(-18.58 -9.18)"/><path class="cls-11" d="M32,129l.9,0c.47,3.46-.58,6.75-1.16,10.09L30,137.23C32,134.83,30.66,131.56,32,129Z" transform="translate(-18.58 -9.18)"/><path class="cls-101" d="M32.13,150H33l.82,1,.15,1.05,0,0a2.32,2.32,0,0,0,0,2.59,3.76,3.76,0,0,0-.15.62c0,.08.12.18.19.27l-2,.44h.12Q32.12,152.95,32.13,150Z" transform="translate(-18.58 -9.18)"/><path class="cls-67" d="M26.93,136.73a1.93,1.93,0,0,1,2.13.18,1.44,1.44,0,0,1-2.06-.05Z" transform="translate(-18.58 -9.18)"/><path class="cls-37" d="M23.25,139.23A5.37,5.37,0,0,1,24,139l-.35,1.28Z" transform="translate(-18.58 -9.18)"/><path class="cls-88" d="M19.88,153.83l.35.59h0l-.33-.58Z" transform="translate(-18.58 -9.18)"/><path class="cls-102" d="M131,86.13l2.2,5.91-.42,0,.08,1.92,1,1.24h.08l-.05,5.74c-1,1.27-.59,2.79-.75,4.21L128,115l-1,1.56a.81.81,0,0,1-.62.69l-.43-.33L125,115l-1-2a2.56,2.56,0,0,0,.05-.87l.8-2.06.25-1.9.76-2.18,0-6,.1-3.84c.37-.67,1.1-1.24.34-2.68l-.34,2.66q-.43-.11-.85-.27c-.16-1.42.34-3-.94-4.14l-.2-3.64-.79-3.21a1.62,1.62,0,0,0-.3-.74L122.06,80l1.74-1.34L126,79Z" transform="translate(-18.58 -9.18)"/><path class="cls-1" d="M108,131l-2,1-.18-5,3.23-2a3.83,3.83,0,0,0,2.84-1.42l1-.8,1.85.12a3.08,3.08,0,0,0,2.24-1.85l0,0a2.71,2.71,0,0,1,1.83,1.77l.11.21a2.54,2.54,0,0,0-1.72,2.67L116,126,114,126l-2.11,2-.88,0c-1.49,0-3.82-1.3-3,2Q108,130.51,108,131Z" transform="translate(-18.58 -9.18)"/><path class="cls-102" d="M126.33,117.25a1,1,0,0,1-.25.48l-1.08.48a2.37,2.37,0,0,0-1.92,1.79L121,118h0c1.13-.29,1.33-1,1-2l1.19-1.91.86,1a2.84,2.84,0,0,0,1.88,1.85Z" transform="translate(-18.58 -9.18)"/><path class="cls-70" d="M108,130.06c-.82-3.34,1.51-2.08,3-2A5,5,0,0,1,108,130.06Z" transform="translate(-18.58 -9.18)"/><path class="cls-103" d="M122,122c-.51,1.41-1.78,2-3,2.59q0-.78,0-1.56l-.11-.21L122,122Z" transform="translate(-18.58 -9.18)"/><path class="cls-104" d="M123.08,120a2.37,2.37,0,0,1,1.92-1.79l-.06,1.58-.92,1.12,0,.07Z" transform="translate(-18.58 -9.18)"/><path class="cls-105" d="M111.92,128.06l2.1-2q0,.56,0,1.12A1.59,1.59,0,0,1,111.92,128.06Z" transform="translate(-18.58 -9.18)"/><path class="cls-106" d="M119,123q0,.78,0,1.56l-1.72,1.11A2.54,2.54,0,0,1,119,123Z" transform="translate(-18.58 -9.18)"/><path class="cls-104" d="M124.94,119.79l.06-1.58,1.08-.48A1.83,1.83,0,0,1,124.94,119.79Z" transform="translate(-18.58 -9.18)"/><path class="cls-107" d="M124,120.91,122,122l.05,0,2-1Z" transform="translate(-18.58 -9.18)"/><path class="cls-98" d="M114,127.14q0-.56,0-1.12l1.93,0Z" transform="translate(-18.58 -9.18)"/><path class="cls-108" d="M127,116.55l1-1.56.93.84Z" transform="translate(-18.58 -9.18)"/><path class="cls-8" d="M36,163l1-2Z" transform="translate(-18.58 -9.18)"/><path class="cls-109" d="M123.21,47.75,125,49l.94,1.07a7.6,7.6,0,0,0,.15.87c.74,4.78,1.86,9.58-.9,14.14A12.75,12.75,0,0,0,120,63a12.9,12.9,0,0,0-6-3c-1-1.25-2-2.44-4.13-2.16C111,59.63,112.64,59.55,114,60l2,3-3,1c-2.33-1.35-4.29-3.34-7-4L100,55V49a15.31,15.31,0,0,1,13-7c3.4,1,7.07,1.46,9.25,4.81l-4.58,1.77A5.78,5.78,0,0,0,123.21,47.75ZM117,52l-2-1c-2.37-1.43-4.78-2.5-7.58-.59L115,52l2,0a6.27,6.27,0,0,0,6.47,0Zm7.8,6.66-12.07-4.2C116.48,56.63,119.92,59.71,124.8,58.66ZM113.5,47.33l-.37.19a5.68,5.68,0,0,0,.36.6,2.28,2.28,0,0,0,.35-.18Z" transform="translate(-18.58 -9.18)"/><path class="cls-52" d="M106,60c2.74.61,4.7,2.61,7,4,3.65,3,6.82,6.61,11,9a11.18,11.18,0,0,1-.17,5.69L122.06,80c-2.41-.83-3-3.14-4-5l-1-2,0,0c-.27-1.9-1.53-3.08-3-4.14a15.77,15.77,0,0,0-6-4.9l-3.2-1.86,0-1Z" transform="translate(-18.58 -9.18)"/><path class="cls-65" d="M124,73c-4.14-2.41-7.32-6-11-9l3-1,4,1,4.91,1.93C123.79,68.17,123,70.48,124,73Z" transform="translate(-18.58 -9.18)"/><path class="cls-54" d="M124.92,65.92,120,64q0-.49,0-1a12.75,12.75,0,0,1,5.16,2.08Z" transform="translate(-18.58 -9.18)"/><path class="cls-93" d="M131.08,35.81l1.23,1.25,1.58,2.58-.78,5.29a7.92,7.92,0,0,0-.93-.35l-3.24-4.4L129,38l2-1Z" transform="translate(-18.58 -9.18)"/><path class="cls-60" d="M133.89,39.64l-1.58-2.58a2,2,0,0,0,.5,0A2.85,2.85,0,0,1,133.89,39.64Z" transform="translate(-18.58 -9.18)"/><path class="cls-26" d="M27,124l-.83.08-.31-1.15q0-3.41,0-6.81l.9-1.13a1.48,1.48,0,0,1,.48.19Q27.12,119.55,27,124Z" transform="translate(-18.58 -9.18)"/><path class="cls-104" d="M25.88,116.08q0,3.41,0,6.81A7.26,7.26,0,0,1,25.88,116.08Z" transform="translate(-18.58 -9.18)"/><path class="cls-67" d="M22,115l.3.36-.3-.37Z" transform="translate(-18.58 -9.18)"/><path class="cls-8" d="M33.95,152l-.15-1.05L34,149l.94-1.26A6.46,6.46,0,0,1,33.95,152Z" transform="translate(-18.58 -9.18)"/><path class="cls-8" d="M33.94,154.54A2.32,2.32,0,0,1,34,152Z" transform="translate(-18.58 -9.18)"/><path class="cls-8" d="M32,155.87l2-.44A1.26,1.26,0,0,1,32,155.87Z" transform="translate(-18.58 -9.18)"/><path class="cls-110" d="M38.06,65.82l-1,4.2-1.11-1.1A3.37,3.37,0,0,1,38.06,65.82Z" transform="translate(-18.58 -9.18)"/><path class="cls-111" d="M41.09,57.74,39,63l-1,0C38.43,60.89,39,58.9,41.09,57.74Z" transform="translate(-18.58 -9.18)"/><path class="cls-110" d="M38,63l1,0L38,65.27Z" transform="translate(-18.58 -9.18)"/><path class="cls-28" d="M31.9,71.24l-1.81-.06Z" transform="translate(-18.58 -9.18)"/><path class="cls-65" d="M41.33,55A6,6,0,0,0,42,55L41,57.47Z" transform="translate(-18.58 -9.18)"/><path class="cls-71" d="M100.83,190.06q0,10.95,0,21.89A59.8,59.8,0,0,1,100.83,190.06Z" transform="translate(-18.58 -9.18)"/><path class="cls-2" d="M90,219a2.1,2.1,0,0,1,.22.83L88,219.07Z" transform="translate(-18.58 -9.18)"/><path class="cls-44" d="M133.07,105.11c.16-1.42-.22-2.93.75-4.21a5.08,5.08,0,0,1,1,3.63Z" transform="translate(-18.58 -9.18)"/><path class="cls-28" d="M133.94,92l.87-.52a5.23,5.23,0,0,1-.94,3.66h-.08Z" transform="translate(-18.58 -9.18)"/><path class="cls-63" d="M133.94,92l-.15,3.15-1-1.24L132.73,92l.42,0Z" transform="translate(-18.58 -9.18)"/><path class="cls-41" d="M105.86,127l.18,5,0,2.06c-.27,5,.72,10.24-2.32,14.84l-.86-2.11c-.54-5,.81-10-.81-14.95A7.73,7.73,0,0,0,102,131C103.07,129.46,104,127.79,105.86,127Z" transform="translate(-18.58 -9.18)"/><path class="cls-112" d="M100,156l1-5,1-3,.11,3.93-.23,3.16-.85.9Z" transform="translate(-18.58 -9.18)"/><path class="cls-113" d="M100.23,170.06l.93-3.1h.67c.58,1.64,1.35,3.24,1.09,5.05h-.86l-1-2Z" transform="translate(-18.58 -9.18)"/><path class="cls-114" d="M102.07,151.94,102,148a1.44,1.44,0,0,0,.2-.92q.37-.14.72-.32l.86,2.11-.81,3.08Q102.51,152,102.07,151.94Z" transform="translate(-18.58 -9.18)"/><path class="cls-115" d="M101.12,163l.13-4.84c1.08,1.5.79,3.18.6,4.84Z" transform="translate(-18.58 -9.18)"/><path class="cls-73" d="M101.12,163h.73q0,2,0,3.94h-.67Q101.14,165,101.12,163Z" transform="translate(-18.58 -9.18)"/><path class="cls-23" d="M103.86,176c-1.52-.66-1.82-1.65-.81-3Z" transform="translate(-18.58 -9.18)"/><path class="cls-23" d="M104.73,178.09,104,180a2.31,2.31,0,0,1,.11-3.09Z" transform="translate(-18.58 -9.18)"/><path class="cls-116" d="M102.07,151.94q.43,0,.87,0l.09,3.12h-1.18Z" transform="translate(-18.58 -9.18)"/><path class="cls-84" d="M101.85,155.1H103c-.33,1.07-1.08,1.2-2,.91Z" transform="translate(-18.58 -9.18)"/><path class="cls-28" d="M128,137.07a1.52,1.52,0,0,1,1.94-.2Z" transform="translate(-18.58 -9.18)"/><path class="cls-76" d="M100.91,178l-1.09-.12.07-1.83C102.24,175.66,100.48,177.42,100.91,178Z" transform="translate(-18.58 -9.18)"/><path class="cls-34" d="M101.06,170.05l1,2Z" transform="translate(-18.58 -9.18)"/><path class="cls-45" d="M99.88,176.07l-.07,1.83a3,3,0,0,1-.86.17l.09-2Z" transform="translate(-18.58 -9.18)"/><path class="cls-112" d="M34,149l-.17,1.93L33,150Z" transform="translate(-18.58 -9.18)"/><path class="cls-60" d="M35,144l-.31-.37L35,144Z" transform="translate(-18.58 -9.18)"/><path class="cls-117" d="M97.66,179.91c.29-.78.24-1.81,1.39-2L99,180Z" transform="translate(-18.58 -9.18)"/><path class="cls-107" d="M96,183l1-2.08Z" transform="translate(-18.58 -9.18)"/><path class="cls-107" d="M98.73,181l-.69,2Z" transform="translate(-18.58 -9.18)"/><path class="cls-60" d="M73.11,159l1.82,1.45-1.71.31Z" transform="translate(-18.58 -9.18)"/><path class="cls-2" d="M77.1,121.11,75.65,120,75,118.46,74,116l-3.14-4L70,110c-3.11-8-3.32-16,.05-23.94l4.81-7.29,3.89,2.27-.54,4.08L77.93,89v-.08C76.38,91,76.77,93.66,76.16,96c.05,3.35-.88,6.76.66,10,.37,6.64,3.66,11.49,9.18,15l2.24,1.65A4.38,4.38,0,0,0,86,125l-3.06,0,.09,0c-.43-1.67-1.7-2.4-3.19-2.89C79.44,120.52,78.33,120.66,77.1,121.11Z" transform="translate(-18.58 -9.18)"/><path class="cls-109" d="M78.73,81.06l-3.89-2.27L72.07,78a16.08,16.08,0,0,1-6-13.11c.29-5.9,4.07-10.16,7-14.83l1-1.05.48,0L75,49c-5.34,9.75,1.55,18.63,2,28,1.48,1.23,2.87,3,5,1C81.91,80.06,81.33,81.61,78.73,81.06Z" transform="translate(-18.58 -9.18)"/><path class="cls-13" d="M52.91,46.19,53,45h0l2.19-1.1L57,45l1,1.84c1.35,1.61,2.82,3,5.09,3.13-.61,2-.92,4.12-2.23,5.85-3.12,1.49-6.93-2.1-9.79,1.32L50,55Z" transform="translate(-18.58 -9.18)"/><path class="cls-118" d="M60.87,55.87C62.19,54.14,62.49,52,63.11,50L65,47l0,0,.87-1.89L68,44c4,3.7,8-.14,12,0L75.2,48.26c-.57-.06-1.35-.38-1.67-.13-.5.39.13.7.52.89l-1,1.05c-6.38.52-9.17,3.56-10,10.92Z" transform="translate(-18.58 -9.18)"/><path class="cls-58" d="M70,86.08c-3.37,8-3.17,16-.05,23.94l-.25.29-.95,1-1.6-1.69c-3.46-9.17-3.43-18.08,2-26.57Z" transform="translate(-18.58 -9.18)"/><path class="cls-119" d="M63,61c.87-7.36,3.66-10.4,10-10.92-2.9,4.67-6.68,8.93-7,14.83C64.29,64.19,63.75,62.51,63,61Z" transform="translate(-18.58 -9.18)"/><path class="cls-17" d="M70,86.08l-.84-3L72.07,78l2.78.77Z" transform="translate(-18.58 -9.18)"/><path class="cls-97" d="M86,125a4.38,4.38,0,0,1,2.24-2.36l0,.1L88,124l1,2v2q0,.47,0,.94l-2.06-1Z" transform="translate(-18.58 -9.18)"/><path class="cls-20" d="M72.69,116.09l-.7.21L69.73,114a6.15,6.15,0,0,0,.19-.75L70,112l.87,0L74,116Z" transform="translate(-18.58 -9.18)"/><path class="cls-42" d="M50,62,49.92,68,49,68c-.21-2-1.47-4,0-6Z" transform="translate(-18.58 -9.18)"/><path class="cls-120" d="M50.25,68.88c.91,1.28.72,2.7.57,4.13l-.63-.07a3.62,3.62,0,0,1-1.14-3Z" transform="translate(-18.58 -9.18)"/><path class="cls-121" d="M45.88,45.56l.19-1.42c1.37-.06,2.79-.41,4,.55a4.65,4.65,0,0,0-3.17,2.2Z" transform="translate(-18.58 -9.18)"/><path class="cls-122" d="M77.1,121.11c1.23-.45,2.33-.59,2.73,1.07q0,.64,0,1.29A5,5,0,0,1,77.1,121.11Z" transform="translate(-18.58 -9.18)"/><path class="cls-123" d="M86,125l.93,2.9c-1.38-.9-3.1-1.31-4-2.88Z" transform="translate(-18.58 -9.18)"/><path class="cls-124" d="M50.19,72.94l.63.07a2.47,2.47,0,0,1,.88,2.2C50,75.25,50.35,73.92,50.19,72.94Z" transform="translate(-18.58 -9.18)"/><path class="cls-91" d="M94,132,92,132l.9-2L92,129v-1a3.19,3.19,0,0,1,2,3Q94,131.5,94,132Z" transform="translate(-18.58 -9.18)"/><path class="cls-113" d="M79.84,123.47q0-.64,0-1.29c1.49.49,2.76,1.23,3.19,2.89Z" transform="translate(-18.58 -9.18)"/><path class="cls-88" d="M50,55l1.08,2.19-.92,2-1-1.2Z" transform="translate(-18.58 -9.18)"/><path class="cls-125" d="M45.88,45.56l1,1.34L46,48l-2.17,1,.19-1.91Z" transform="translate(-18.58 -9.18)"/><path class="cls-108" d="M49.13,58l1,1.2L50,62l-1,0Z" transform="translate(-18.58 -9.18)"/><path class="cls-6" d="M92,128v1l-.9.16-2.1-.23c0-.31,0-.63,0-.94h3Z" transform="translate(-18.58 -9.18)"/><path class="cls-19" d="M50.25,68.88l-1.2,1L49,68l.94,0A8.66,8.66,0,0,1,50.25,68.88Z" transform="translate(-18.58 -9.18)"/><path class="cls-91" d="M93,138.16,96,133c2.69-.34,1.06,2.17,2,3l-.06,9.11A15.85,15.85,0,0,1,93,138.16Z" transform="translate(-18.58 -9.18)"/><path class="cls-112" d="M99.12,137A17.76,17.76,0,0,1,99,149l-1-2C99.79,143.81,98.63,140.29,99.12,137Z" transform="translate(-18.58 -9.18)"/><path class="cls-105" d="M99.12,137c-.49,3.33.67,6.85-1.12,10q0-.94-.06-1.89,0-4.56.06-9.11h1Q99,136.48,99.12,137Z" transform="translate(-18.58 -9.18)"/><path class="cls-126" d="M27,124q.14-4.42.28-8.83c2.48,2.86.82,6,.49,9,0,.06-.27.16-.39.14S27.1,124.07,27,124Z" transform="translate(-18.58 -9.18)"/><path class="cls-127" d="M32.84,99.12q-.07,2.47-.13,4.94c-.74.56-1.56.89-1.28-.52A36.19,36.19,0,0,1,32.84,99.12Z" transform="translate(-18.58 -9.18)"/><path class="cls-6" d="M99,136H98c-.91-.83.72-3.34-2-3l0-1-2-1a3.19,3.19,0,0,0-2-3h0c-.29-1.77.95-1.93,2.2-2.07A3.49,3.49,0,0,1,95,126c.1,1.94-.06,4.16,3.06,2.82l2.09,1C98.76,131.73,99.15,133.92,99,136Z" transform="translate(-18.58 -9.18)"/><path class="cls-94" d="M94,131l2,1H94Q94,131.5,94,131Z" transform="translate(-18.58 -9.18)"/><path class="cls-5" d="M68.09,29l2.83.74a7.86,7.86,0,0,0-2.85,3.31L66.91,34c-1.32,1-2.06,2.14-1.16,3.8-.29,1.3-1,2.76,1.22,3.09-1.61,3.13-4.9.55-7,2.07l-.68-1.89a1.68,1.68,0,0,0-.49-.14c.51-4.88,4.57-7.42,7.19-10.9l1.74-1.15Z" transform="translate(-18.58 -9.18)"/><path class="cls-118" d="M58,46.89,57,45,57.9,44l1,1.06.15-.1C59,45.75,59,46.57,58,46.89Z" transform="translate(-18.58 -9.18)"/><path class="cls-87" d="M58.93,45,57.9,44q0-.55,0-1.09L58,41l.79,0a1.68,1.68,0,0,1,.49.14L59.09,43Z" transform="translate(-18.58 -9.18)"/><path class="cls-74" d="M67.75,28.92,66,30.06Z" transform="translate(-18.58 -9.18)"/><path class="cls-39" d="M58,41l-.16,1.9A1.44,1.44,0,0,1,58,41Z" transform="translate(-18.58 -9.18)"/><path class="cls-60" d="M52.75,41.2a1.07,1.07,0,0,1-.66-.41C52.51,40.6,53,40.26,52.75,41.2Z" transform="translate(-18.58 -9.18)"/><path class="cls-25" d="M53,45l-.32-.38L53,45Z" transform="translate(-18.58 -9.18)"/><path class="cls-5" d="M75.2,48.26,80,44c2.48-1.11,5.47-1.37,6.93-4.18L88,42c4.33,1.8,9.36,2.38,12,7q0,3,0,5.95L97,59,96,61l-2,1L92,63.1l-2.21,1.82L86.18,66c-5.08,2-8,5.74-9.18,11-.44-9.34-7.33-18.22-2-28A3.15,3.15,0,0,0,75.2,48.26Z" transform="translate(-18.58 -9.18)"/><path class="cls-40" d="M88,42l-1.1-2.19A1.68,1.68,0,0,1,87,39l3-1.91,1,.08q0,.42,0,.84C89.78,39.15,88.33,40.16,88,42Z" transform="translate(-18.58 -9.18)"/><path class="cls-22" d="M104,37.07h4C107.77,39.61,107.61,39.61,104,37.07Z" transform="translate(-18.58 -9.18)"/><path class="cls-38" d="M96,37.92l6,0A5,5,0,0,1,96,37.92Z" transform="translate(-18.58 -9.18)"/><path class="cls-44" d="M91,38q0-.42,0-.84L93,37.09Z" transform="translate(-18.58 -9.18)"/><path class="cls-38" d="M94,37.09c.83-.07,1.64-.07,2.06.85Z" transform="translate(-18.58 -9.18)"/><path class="cls-71" d="M87,39a1.68,1.68,0,0,0-.07.83C85.44,42.61,82.45,42.87,80,44c-4-.14-8,3.71-12,0a6.51,6.51,0,0,1,4.95-4.19h3c-.85-1.16-1.93-.66-2.79-.93.62-2.12,2.37-3.25,4-4.53l3.92.1c1.76,1.64,3.11,3.93,6,3.68A1.68,1.68,0,0,0,87,39Zm-6.36-.72L80,38.06l.11.37Z" transform="translate(-18.58 -9.18)"/><path class="cls-5" d="M58,46.89c1-.32,1-1.14,1.07-1.95,2.48-.82,3.73,1.89,5.88,2l-1.86,3C60.84,49.9,59.36,48.5,58,46.89Z" transform="translate(-18.58 -9.18)"/><path class="cls-128" d="M67,40.93c-2.19-.33-1.51-1.79-1.22-3.09l1.06-2,1.11,1.13-.78,2.17L67.05,41Z" transform="translate(-18.58 -9.18)"/><path class="cls-129" d="M67.93,36.95l-1.11-1.13L66.91,34l1.16-.95,1.06,1Z" transform="translate(-18.58 -9.18)"/><path class="cls-123" d="M87,39a1.68,1.68,0,0,1,0-.86l1.12-2,1.45-.31L90,37.06Z" transform="translate(-18.58 -9.18)"/><path class="cls-38" d="M81,34.43,77,34.33A2.44,2.44,0,0,1,81,34.43Z" transform="translate(-18.58 -9.18)"/><path class="cls-130" d="M73.09,38.86c.86.28,1.94-.22,2.79.93h-3A4.52,4.52,0,0,1,73.09,38.86Z" transform="translate(-18.58 -9.18)"/><path class="cls-117" d="M67.05,41l.1-1.88A1.46,1.46,0,0,1,67.05,41Z" transform="translate(-18.58 -9.18)"/><path class="cls-5" d="M65.85,45.06,65,47Z" transform="translate(-18.58 -9.18)"/><path class="cls-40" d="M59.09,43l.22-1.87L60,43Z" transform="translate(-18.58 -9.18)"/><path class="cls-112" d="M115.77,37.89,118,34.13l5,.72a10.24,10.24,0,0,1,3.85,3.86c-1.22.57-2.86-.13-3.81,1.26-1.29.54-2.18-.13-3-1a1.6,1.6,0,0,0,.44-.11c.09-.05.13-.2.2-.3L120,39Z" transform="translate(-18.58 -9.18)"/><path class="cls-21" d="M126.81,38.72A10.24,10.24,0,0,0,123,34.85c-.8-1.74-2.37-1.82-4-1.86l1-2h2c2,1.65,4.46,2.78,6,5h0l1,2-.06,2.19-1.9-.34Z" transform="translate(-18.58 -9.18)"/><path class="cls-46" d="M123.21,47.75a5.78,5.78,0,0,1-5.53.84l4.58-1.77Z" transform="translate(-18.58 -9.18)"/><path class="cls-14" d="M126.89,46.29a4.06,4.06,0,0,1-.4.75,2.38,2.38,0,0,1-1.16-.52c-.34-.41-.16-.92.43-.87C126.15,45.69,126.51,46.06,126.89,46.29Z" transform="translate(-18.58 -9.18)"/><path class="cls-36" d="M126.81,38.72l.22,1.13L123,40C124,38.59,125.59,39.28,126.81,38.72Z" transform="translate(-18.58 -9.18)"/><path class="cls-44" d="M119,33c1.6,0,3.17.11,4,1.86l-5-.72Z" transform="translate(-18.58 -9.18)"/><path class="cls-7" d="M122,31h-1l1.63-.74A2.77,2.77,0,0,1,122,31Z" transform="translate(-18.58 -9.18)"/><path class="cls-43" d="M129,38l-1-2,3,1Z" transform="translate(-18.58 -9.18)"/><path class="cls-35" d="M86.18,66l3.64-1.14c1,.45,1.68,0,2.18-.9,3.92-1.26,8-1,12-1,1.18,1.08,2.4,2,4.06.94a15.76,15.76,0,0,1,6,4.9c-.47,2.43,1.59,3,3,4.14l0,0,1,2c1.08,1.9,1.64,4.21,4,5l.78,4.06c-.09.13-.23.26-.25.4-.08.44.13.55.55.34l.79,3.21a4.2,4.2,0,0,0,.05,5q0,.48,0,1c-1.43.68-.85,1.35,0,2v9a6.79,6.79,0,0,0-1,4q0,.48,0,1l-1,2c-1.92,2.46-4,4.72-6.92,6L110,120c-6.34-.18-12.74.78-19-1L87.09,118,85,116h0L82,113.91,78,106l0-6-1-3q0-.49,0-1c1.33-2.22.89-4.67.92-7.06V89a3.11,3.11,0,0,0,.26-3.87l.54-4.08c2.6.55,3.18-1,3.25-3.1L82,75A1.47,1.47,0,0,0,82,73l1.06-2.9c2.71.48,3.54-.35,3-3.05Z" transform="translate(-18.58 -9.18)"/><path class="cls-7" d="M115,118c2.91-1.32,5-3.59,6.92-6l1-2q0-.48,0-1l1-3h1l.05,2.15-.25,1.9-.8,2.06a2.56,2.56,0,0,1-.05.87l-.83,1L122,115.93l-1,2h0l-3,1.95L116,119Z" transform="translate(-18.58 -9.18)"/><path class="cls-46" d="M125,106h-1l0-1q0-4.5,0-9V94q0-.48,0-1l.15-1.34c1.28,1.16.78,2.73.94,4.14a7.45,7.45,0,0,0,.75,4.12q0,3,0,6Z" transform="translate(-18.58 -9.18)"/><path class="cls-21" d="M124.14,91.7,124,93a4.2,4.2,0,0,1-.05-5Z" transform="translate(-18.58 -9.18)"/><path class="cls-131" d="M125.83,100a7.45,7.45,0,0,1-.75-4.12q.42.15.85.27v0Z" transform="translate(-18.58 -9.18)"/><path class="cls-132" d="M125.92,96.11l.34-2.66c.77,1.43,0,2-.34,2.68Z" transform="translate(-18.58 -9.18)"/><path class="cls-133" d="M123.15,114l.83-1,1,2-1,.05Z" transform="translate(-18.58 -9.18)"/><path class="cls-80" d="M124,115.06l1-.05.89,1.9A2.85,2.85,0,0,1,124,115.06Z" transform="translate(-18.58 -9.18)"/><path class="cls-46" d="M124,112.12l.8-2.06Z" transform="translate(-18.58 -9.18)"/><path class="cls-131" d="M125,106l.81,0-.76,2.18Z" transform="translate(-18.58 -9.18)"/><path class="cls-60" d="M132.73,92l.08,1.92Z" transform="translate(-18.58 -9.18)"/><path class="cls-134" d="M123.15,84.85c-.43.22-.63.1-.55-.34,0-.15.16-.27.25-.4A1.62,1.62,0,0,1,123.15,84.85Z" transform="translate(-18.58 -9.18)"/><path class="cls-7" d="M91,119c6.26,1.73,12.66.77,19,1l.05.05c1,1.58-1.21,2.65-.68,4.16q-.14.42-.26.85l-3.23,2c-1.85.79-2.79,2.46-3.86,4l-1.85-1.11-2.09-1A7.37,7.37,0,0,0,95,126a3.49,3.49,0,0,0-.81-.12l-.47-.95L92,124l-3.78-1.22,0-.1L86,121Z" transform="translate(-18.58 -9.18)"/><path class="cls-7" d="M115,118l1,1,1.27,1.19q-.09.43-.2.84l0,0-2.24,1.85-1.85-.12c-.45-1.47-.89-3-2.92-2.78L110,120Z" transform="translate(-18.58 -9.18)"/><path class="cls-80" d="M117.08,121q.12-.42.2-.84a1.18,1.18,0,0,0,.67-.3l3-1.95,2.13,2,1,1-2,1-3.13.79A2.71,2.71,0,0,0,117.08,121Z" transform="translate(-18.58 -9.18)"/><path class="cls-8" d="M110,120c2-.17,2.46,1.31,2.92,2.78l-1,.8-2.58.57C108.83,122.68,111,121.61,110,120Z" transform="translate(-18.58 -9.18)"/><path class="cls-80" d="M114.8,122.93l2.24-1.85A3.08,3.08,0,0,1,114.8,122.93Z" transform="translate(-18.58 -9.18)"/><path class="cls-32" d="M109.36,124.18l2.58-.57a3.84,3.84,0,0,1-2.84,1.42Q109.22,124.61,109.36,124.18Z" transform="translate(-18.58 -9.18)"/><path class="cls-80" d="M120.94,118l1-2C122.27,116.93,122.07,117.68,120.94,118Z" transform="translate(-18.58 -9.18)"/><path class="cls-134" d="M124.8,58.66c-4.88,1.05-8.31-2-12.07-4.2Z" transform="translate(-18.58 -9.18)"/><path class="cls-13" d="M97,59,100,55,106,60l-1.08,1L103,60.92C101.6,58.45,99.18,59.14,97,59Z" transform="translate(-18.58 -9.18)"/><path class="cls-33" d="M115,52l-7.59-1.57c2.79-1.91,5.2-.83,7.58.59Q115,51.49,115,52Z" transform="translate(-18.58 -9.18)"/><path class="cls-63" d="M120,63q0,.49,0,1l-4-1-2-3v0A12.9,12.9,0,0,1,120,63Z" transform="translate(-18.58 -9.18)"/><path class="cls-52" d="M117,52h6.47A6.27,6.27,0,0,1,117,52Z" transform="translate(-18.58 -9.18)"/><path class="cls-63" d="M114,60c-1.36-.46-3-.38-4.11-2.17C112,57.55,113,58.74,114,60Z" transform="translate(-18.58 -9.18)"/><path class="cls-33" d="M113.5,47.33l.34.61a2.28,2.28,0,0,1-.35.18,5.68,5.68,0,0,1-.36-.6Z" transform="translate(-18.58 -9.18)"/><path class="cls-5" d="M115,52q0-.49,0-1l2,1h0Z" transform="translate(-18.58 -9.18)"/><path class="cls-109" d="M103,60.92l1.86.13q0,.52,0,1h-.93l-10-.17,2-1Z" transform="translate(-18.58 -9.18)"/><path class="cls-135" d="M117.05,73c-1.38-1.1-3.44-1.71-3-4.14C115.52,69.91,116.79,71.09,117.05,73Z" transform="translate(-18.58 -9.18)"/><path class="cls-55" d="M103.94,62.1h.93L108.06,64c-1.66,1-2.88.14-4.06-.94Q104,62.56,103.94,62.1Z" transform="translate(-18.58 -9.18)"/><path class="cls-55" d="M118,75l-1-2Z" transform="translate(-18.58 -9.18)"/><path class="cls-112" d="M102.16,147.09l-.09-15.27c1.62,4.91.27,10,.81,14.95Q102.53,146.94,102.16,147.09Z" transform="translate(-18.58 -9.18)"/><path class="cls-7" d="M91,119l-5,2c-5.52-3.49-8.81-8.34-9.18-15L78,106l4,7.91A3.07,3.07,0,0,0,85,116h0c-.3,1.74.84,1.9,2.11,1.94Z" transform="translate(-18.58 -9.18)"/><path class="cls-19" d="M78,106l-1.18,0c-1.54-3.25-.61-6.66-.66-10L77,96q0,.49,0,1l1,3Z" transform="translate(-18.58 -9.18)"/><path class="cls-41" d="M77,96l-.87,0c.61-2.36.22-5,1.79-7.08C77.92,91.33,78.37,93.78,77,96Z" transform="translate(-18.58 -9.18)"/><path class="cls-122" d="M78.19,85.14A3.11,3.11,0,0,1,77.93,89Z" transform="translate(-18.58 -9.18)"/><path class="cls-61" d="M72.69,116.09,74,116l1,2.47Z" transform="translate(-18.58 -9.18)"/><path class="cls-23" d="M70.9,112,70,112l-.3-1.68L70,110Z" transform="translate(-18.58 -9.18)"/><path class="cls-13" d="M82,75,82,78c-2.11,2-3.49.27-5-1,1.2-5.21,4.1-9,9.18-11q0,.51-.07,1l-3,3.05L82,73Q82,74,82,75Z" transform="translate(-18.58 -9.18)"/><path class="cls-74" d="M75.2,48.26A3.15,3.15,0,0,1,75,49l-.48,0-.48,0c-.39-.2-1-.5-.52-.89C73.85,47.87,74.63,48.19,75.2,48.26Z" transform="translate(-18.58 -9.18)"/><path class="cls-18" d="M69.73,110.3,70,112l-.11,1.28-1.14-1.91Z" transform="translate(-18.58 -9.18)"/><path class="cls-91" d="M88.2,122.75,92,124l1.74,1,.47.95c-1.25.14-2.48.3-2.2,2.07H89q0-1,0-2c.34-1-.25-1.54-1-2Z" transform="translate(-18.58 -9.18)"/><path class="cls-6" d="M88,124c.74.47,1.33,1,1,2Z" transform="translate(-18.58 -9.18)"/><path class="cls-91" d="M95,126a7.37,7.37,0,0,1,3.06,2.82C94.94,130.21,95.1,128,95,126Z" transform="translate(-18.58 -9.18)"/><path class="cls-104" d="M66.91,34l-.09,1.79-1.06,2C64.85,36.18,65.6,35,66.91,34Z" transform="translate(-18.58 -9.18)"/><path class="cls-136" d="M103.94,62.1q0,.46.06.92c-4,0-8.08-.26-12,1q0-.46,0-.92L94,61.93Z" transform="translate(-18.58 -9.18)"/><path class="cls-19" d="M103,60.92l-7,0L97,59C99.18,59.14,101.6,58.45,103,60.92Z" transform="translate(-18.58 -9.18)"/><path class="cls-83" d="M92,63.1q0,.46,0,.92c-.49.86-1.14,1.35-2.18.9Z" transform="translate(-18.58 -9.18)"/><path class="cls-137" d="M80.61,38.25l-.46.18L80,38.06Z" transform="translate(-18.58 -9.18)"/><path class="cls-138" d="M120,39l.63-.41c-.06.1-.1.25-.2.3A1.6,1.6,0,0,1,120,39Z" transform="translate(-18.58 -9.18)"/><path class="cls-83" d="M83.08,70.13l3-3.05C86.62,69.77,85.79,70.61,83.08,70.13Z" transform="translate(-18.58 -9.18)"/><path class="cls-7" d="M87.09,118c-1.27,0-2.41-.2-2.11-1.94Z" transform="translate(-18.58 -9.18)"/><path class="cls-131" d="M124,105l0,1-1,3A6.78,6.78,0,0,1,124,105Z" transform="translate(-18.58 -9.18)"/><path class="cls-7" d="M85,116a3.07,3.07,0,0,1-2.95-2.1Z" transform="translate(-18.58 -9.18)"/><path class="cls-41" d="M78,100l-1-3Z" transform="translate(-18.58 -9.18)"/><path class="cls-131" d="M124,94v2C123.13,95.34,122.56,94.67,124,94Z" transform="translate(-18.58 -9.18)"/><path class="cls-139" d="M82,75q0-1,0-1.93A1.47,1.47,0,0,1,82,75Z" transform="translate(-18.58 -9.18)"/><path class="cls-46" d="M123,109.95l-1,2Z" transform="translate(-18.58 -9.18)"/><path class="cls-88" d="M118,119.9a1.18,1.18,0,0,1-.67.3L116,119Z" transform="translate(-18.58 -9.18)"/><path class="cls-6" d="M93.72,125,92,124Z" transform="translate(-18.58 -9.18)"/></svg>