<svg id="Layer_1" data-name="Layer 1" xmlns="http://www.w3.org/2000/svg" viewBox="0 0 164.22 214.94"><defs><style>.cls-1,.cls-11{fill:#212121;}.cls-2{fill:#323232;}.cls-3{fill:#010101;}.cls-11,.cls-19,.cls-3,.cls-32,.cls-38{opacity:0.5;}.cls-4{fill:#b3b3b3;}.cls-5{fill:#939393;}.cls-6{fill:#b9b9b9;}.cls-7{fill:#959595;}.cls-8{fill:#bababa;}.cls-9{fill:#b6b6b6;}.cls-10{fill:#b4b4b4;}.cls-12{fill:#9a9a9a;}.cls-13{fill:#333;}.cls-14{fill:#919191;}.cls-15{fill:#6c6c6c;}.cls-16{fill:#b1b1b1;}.cls-17{fill:#b7b7b7;}.cls-18{fill:#b8b8b8;}.cls-19{fill:#313131;}.cls-20{fill:#383838;}.cls-21{fill:#8d8d8d;}.cls-22{fill:#555;}.cls-23{fill:#444;}.cls-24{fill:#b2b2b2;}.cls-25{fill:#2c2c2c;}.cls-26{fill:#727272;}.cls-27{fill:#4a4a4a;}.cls-28{fill:#595959;}.cls-29{fill:#5f5f5f;}.cls-30{fill:#8e8e8e;}.cls-31{fill:#8c8c8c;}.cls-33{fill:#b5b5b5;}.cls-34{fill:#b0b0b0;}.cls-35{fill:#090909;}.cls-36{fill:#898989;}.cls-37{fill:#818181;}.cls-38{fill:#0b0b0b;}.cls-39{fill:#222;}.cls-40{fill:gray;}.cls-41{fill:#909090;}.cls-42{fill:#232323;}.cls-43{fill:#6e6e6e;}.cls-44{fill:#a7a7a7;}.cls-45{fill:#080808;}.cls-46{fill:#7a7a7a;}.cls-47{fill:#7e7e7e;}.cls-48{fill:#7b7b7b;}.cls-49{fill:#6b6b6b;}.cls-50{fill:#474747;}</style></defs><title>leo_white</title><path class="cls-1" d="M171,138.11c-.91,1.13-2.53,2.2-2.62,3.4-.38,4.74-.29,9.52-.37,14.28-.66-1-1.67-1.86-1.92-2.93-.83-3.49-1.38-7-2-10.57a2.63,2.63,0,0,0-.4,2.05c.5,8.51-.14,16.72-6.92,23-2.67,2.47-5.62,4.66-8.53,6.86-13.6,10.29-23.35,22.64-22.23,40.92l-3.7.88-10.38,3.28-9.18,2.53c.46-3.26,1.16-6.5,1.32-9.77.44-8.94.65-17.89.95-26.84l4,5.4,13.12-4.7L121,182.11l-.84-3.39,2.71-8.85c3.23-6.51,8.83-10.71,14.62-14.61,5.06-3.41,9.47-7.26,11.64-13.17l2.28-8.23L151,127.4l9-10.4,2.94-4c1,4.1,2,8.21,3.17,12.28.82,2.92,1.87,5.77,2.82,8.65l.19,3.25Z" transform="translate(-15.33 -6.85)"/><path class="cls-2" d="M98,185a54.92,54.92,0,0,1,.84,7.39c-.13,7.64-.46,15.27-.79,22.91-.07,1.6-.46,3.18-.81,5.53-8.38-.59-15.63-3.94-23.2-5.8.41-.6,1.15-1.2,1.17-1.82.23-9.68-2.2-18.77-8.92-25.72-6.54-6.77-14.1-12.57-21.33-18.65-4.66-3.92-7.95-8.43-8.16-14.77-.15-4.24-.44-8.48-.66-12.72.65-4.22,1.14-8.48,2-12.66.67-3.17,1.84-6.23,2.79-9.34L51,129.05v5c0,1.73-.33,3.56.09,5.18,1.92,7.36,7.19,12.05,13.24,16.08,6.51,4.33,12.91,8.8,15.79,16.6l1.13,10.25-.84,4,13.52,4.42Z" transform="translate(-15.33 -6.85)"/><path class="cls-3" d="M70.16,203.65l-4,4.48c-2.92-2.6-5.53-4.64-7.77-7-1.54-1.65-2.57-3.78-4.38-5.16a99,99,0,0,0-6.88-7.26c-4-3.51-8.38-6.66-12.48-10.09a10.7,10.7,0,0,1-3.36-4c-1.28-3.5-3.62-4.34-7-4.13-7.45.46-9.33-2-8.95-9.31.48-9.29.14-18.62.35-27.92.23-10.29.67-20.58,1.09-30.87a24.65,24.65,0,0,1,.89-4.09c6.95-2.53,6.47-8.32,6.11-14.12-.27-4.31-.62-8.62-.55-12.93.06-3.24,1-6.25,4.56-7.64A4.28,4.28,0,0,0,30,61.64c3.49-7.73,10.17-14,10-23.47,0-1.82,1.83-4.37,3.54-5.39,3.8-2.27,5.5-5,4.74-9.44a21.39,21.39,0,0,1,.21-4.76c6.68-4.3,14.15-3,21.07-4.18l-.5-.89c2.39-1.8,4.65-4.83,7.21-5.13,5.17-.6,10.79-3.57,15.78.84-3.46,1.19-7,2.25-10.37,3.61C76.95,14.73,72.37,17,70.05,22l-9.84,2-3-1.55c-.56.71-.88.94-.94,1.21-.21,1.1-.33,2.23-.49,3.34l-6.8,12c-2.19,3-4.4,6-6.51,9.11-.11.16.65.9,1,1.38L41.14,54.1,28.95,71.87l-2.89,7.44L29,82l.12,7L25,104c-3.4,9-5.47,18.24-5,27.7l3,3.93-4.24,24.25c0,.66-.29,1.68,0,1.92,1.82,1.38,3.79,2.58,6.19,4.16l8.44-4.69c2.16,7,7.09,11.77,12.64,16.09,4.45,3.46,9,6.82,13.15,10.61C64,192.34,68.39,197.13,70.16,203.65Z" transform="translate(-15.33 -6.85)"/><path class="cls-4" d="M110,37.09A4.31,4.31,0,0,1,113,42c-3.33,1.28-7.07,2-9.89,4-4.17,3-4.1,8.31,0,11.43,6.53,5,13.36,9.66,20.06,14.45l.65,6.89L122.07,80c-1.19-1.29-3-2.4-3.45-3.91-2.19-7.56-7.9-11.27-14.51-14.18-4.74,0-9.65-1.11-13.87,2.16-4.81,2.49-8.47,5.65-8.58,11.76,0,1.75-1.74,3.47-2.67,5.21L76,78.84c-.22-4.07,1.35-8.15-.87-12.23-3-5.44-2.88-11.18-.33-16.85L80,44l6.21-3.75c2.14-1.11,4.22-3,6.43-3.18C98.38,36.67,104.19,37,110,37.09Z" transform="translate(-15.33 -6.85)"/><path class="cls-5" d="M162.94,113,160,117c-.86.43-2,.64-2.55,1.33A33.11,33.11,0,0,1,142,128.92c-7.65,2.64-15.59,4.44-23.34,6.84-2,.63-3.79,2.12-5.67,3.22l-.92,0-2-1,1.95-4.79C127,130,140.29,123.62,151,112.48a30.83,30.83,0,0,0,9-22.43L162,84c4.35.88,6.45,4.27,8.31,7.76.39.74-.33,2.07-.54,3.12-4.1,2.67-3.7,7.21-4.67,11.18Z" transform="translate(-15.33 -6.85)"/><path class="cls-6" d="M70.05,22c2.32-5,6.89-7.25,11.63-9.15,3.4-1.36,6.91-2.41,10.37-3.61,4,0,8-.12,12,.18,9.08.69,16.74,4.24,22.84,12.14L116.8,24.22c-4.83-3-10.12-4.41-15.89-2.24A3,3,0,0,1,99,22c-6.05-2.4-11.37-.59-16.49,2.69A4,4,0,0,1,81,25Z" transform="translate(-15.33 -6.85)"/><path class="cls-7" d="M123.16,71.85c-6.7-4.8-13.53-9.43-20.06-14.45C99,54.27,99,48.92,103.14,46c2.82-2,6.56-2.69,9.89-4,5.52.74,9.41,4.09,12.91,8.07a3.89,3.89,0,0,0,.12.91c1.33,5.93,1.26,11.67-1.94,17.11C123.48,69.16,123.46,70.59,123.16,71.85Z" transform="translate(-15.33 -6.85)"/><path class="cls-8" d="M70.16,203.65C68.39,197.13,64,192.34,59.25,188c-4.15-3.79-8.71-7.15-13.15-10.61-5.55-4.32-10.48-9.11-12.64-16.09L25,166c-2.4-1.58-4.37-2.78-6.19-4.16-.31-.24,0-1.26,0-1.92,5,.6,9.31-1.35,13.38-4L36.1,141.3c.23,4.24.52,8.48.66,12.72.22,6.33,3.5,10.85,8.16,14.77,7.23,6.08,14.78,11.89,21.33,18.65,6.73,7,9.16,16,8.92,25.72,0,.61-.76,1.21-1.17,1.82Z" transform="translate(-15.33 -6.85)"/><path class="cls-9" d="M43.51,49.42c-.36-.47-1.11-1.22-1-1.38C44.61,45,46.82,42,49,38.94L58.41,46c0-9.27,7.19-18,16-19.66a6.38,6.38,0,0,1,2.32.49l-7.88,6-3.65,6.52,1.18.58,2.69-5.5c3.88-3.68,8.33-5.93,13.83-5.58l5.38,7.29L86,38.08a20.13,20.13,0,0,1-2.91-1.71C79,33,76.13,33.69,73.57,38.75l.38.2-6,5L60.87,55.89H52L50,62H48.91l3.32-15.83-4.32-2.46L44,49A.51.51,0,0,0,43.51,49.42Z" transform="translate(-15.33 -6.85)"/><path class="cls-10" d="M126,215.11c-1.12-18.27,8.63-30.63,22.23-40.92,2.91-2.2,5.86-4.39,8.53-6.86,6.78-6.26,7.42-14.48,6.92-23a2.63,2.63,0,0,1,.4-2.05c.66,3.53,1.21,7.08,2,10.57.25,1.07,1.26,2,1.92,2.93l11.51,5.81L175,166l-8.82-4c-2.72,8.5-9.64,13.37-16.35,18.57-7.92,6.14-15.32,12.88-19.11,22.55-1.08,2.75-1.54,5.74-2.5,8.54A18.54,18.54,0,0,1,126,215.11Z" transform="translate(-15.33 -6.85)"/><path class="cls-11" d="M110.14,137.94l2,1-6,4.09-.21-16c2.32-1.26,4.6-2.62,7-3.75,6.52-3.09,11-7.65,12.52-15,1.45-6.95-.18-13.5-1.46-20.15l-1.85-8,1.74-1.31L126,79c10,13.41,10.29,23.58.93,37l-5,6.33L108,130.93C106.65,133.9,108.32,135.94,110.14,137.94Z" transform="translate(-15.33 -6.85)"/><path class="cls-12" d="M128.07,26.92c8.15,3.06,13.88,8,14,17.52,0,.55.58,1.08.89,1.62l-5.07,7.05c-2.06-3.14-3.86-6.49-6.26-9.34-1.64-1.95-4.1-3.21-6.28-4.84l.63-.69c-3.46-4.7-5.09-5-9.25-1.44-2,1.7-3.5,1.31-4.82-.76,1.92-2.88,3-6.57,7.18-7.24l6.95,2.14,7.59,7.19.76-.59-6.33-7.64-2.86-2.08Z" transform="translate(-15.33 -6.85)"/><path class="cls-11" d="M76.72,26.89a6.38,6.38,0,0,0-2.32-.49c-8.8,1.67-16,10.39-16,19.66L49,38.94l6.8-12c2.43.95,3.49.22,4.41-3l9.84-2L81,25Z" transform="translate(-15.33 -6.85)"/><path class="cls-13" d="M165.12,106c1-4,.57-8.52,4.67-11.18,1.08,7.88,2.22,15.76,3.21,23.66.52,4.12.63,8.3,1.2,12.41.19,1.37,1.23,2.62,1.89,3.93l-7,2.32-.19-3.25c-.3-2.61-.72-5.22-.89-7.84-.4-6.1-.64-12.21-1.1-18.31C166.89,107.13,165.75,106.6,165.12,106Z" transform="translate(-15.33 -6.85)"/><path class="cls-14" d="M105,185.18c-.3,8.95-.51,17.9-.95,26.84-.16,3.27-.87,6.52-1.32,9.77-.59-1.55-1.68-3.09-1.7-4.64-.15-11.64-.08-23.28-.08-34.92q0-2.43,0-4.86l-.64-.14-1.11,2-1-1.19q1.41-6.95,2.81-13.9c.34-1.71.66-3.43,1-5.15l1,14Z" transform="translate(-15.33 -6.85)"/><path class="cls-15" d="M126,79l-2.22-.24-.65-6.89c.3-1.26.33-2.69,1-3.76,3.2-5.45,3.27-11.19,1.94-17.11,4.89,3.44,6.53,8.73,8,14.1L129,78Z" transform="translate(-15.33 -6.85)"/><path class="cls-16" d="M137.94,53.11,143,46.06l8.67-7.83,6.45,9.27-.85.8a17.76,17.76,0,0,1-1.81-1.59c-.65-.74-1.18-1.58-2.16-2.94l-5.67,2.36L151,56.95l-.89,4.92-1.56-6h-8.1Z" transform="translate(-15.33 -6.85)"/><path class="cls-17" d="M126,79l3-1c6,8.44,9.53,17.57,5.85,27.83-1.44,4-4.55,7.44-6.89,11.14l-1-1C136.32,102.56,136.06,92.39,126,79Z" transform="translate(-15.33 -6.85)"/><path class="cls-18" d="M162,84l-2.09,6.1-15.68-3.54,2.15-4.77Z" transform="translate(-15.33 -6.85)"/><path class="cls-19" d="M137.94,23.64C149,21.69,154,26,151.43,35.28Z" transform="translate(-15.33 -6.85)"/><path class="cls-9" d="M98.21,178.06l1,1.19L98,185l-4,5.59-13.52-4.42.84-4A2.36,2.36,0,0,0,82,182l11.66,4.79Z" transform="translate(-15.33 -6.85)"/><path class="cls-20" d="M86,38.08l2.3-1.89,1.85-1c2.22-.47,4.43-1,6.66-1.39,4.9-1,9.45-.42,13.2,3.28-5.79-.06-11.59-.42-17.35,0-2.21.16-4.29,2.07-6.43,3.18Z" transform="translate(-15.33 -6.85)"/><path class="cls-21" d="M90.12,35.2l-1.85,1L82.89,28.9l2-2.88,10.69,4.87Z" transform="translate(-15.33 -6.85)"/><path class="cls-22" d="M119.12,28.81c-4.15.67-5.25,4.36-7.18,7.24l-7.24-5.4,9.12-4.14Z" transform="translate(-15.33 -6.85)"/><path class="cls-23" d="M134.08,65.07c-1.5-5.37-3.14-10.66-8-14.1a3.89,3.89,0,0,1-.12-.91c4.3-.83,7.12,1.51,9,4.82S136.84,61.89,134.08,65.07Z" transform="translate(-15.33 -6.85)"/><path class="cls-24" d="M165.6,73.19l3.28-2.76c5.28,6.25,5.26,9.55-.25,12.31Z" transform="translate(-15.33 -6.85)"/><path class="cls-25" d="M128.08,29.91l6.33,7.64-.76.59-7.59-7.19Z" transform="translate(-15.33 -6.85)"/><path class="cls-26" d="M150.15,61.87l.89-4.92a18.26,18.26,0,0,1-.89,14.23Z" transform="translate(-15.33 -6.85)"/><path class="cls-27" d="M110.14,137.94c-1.82-2-3.49-4-2.11-7l4.06,2.22Z" transform="translate(-15.33 -6.85)"/><path class="cls-28" d="M128.07,26.92l-2.85.91-4.89-1.41.42-1.55Z" transform="translate(-15.33 -6.85)"/><path class="cls-29" d="M111.94,219.27,122.32,216Z" transform="translate(-15.33 -6.85)"/><path class="cls-27" d="M69.06,34.48,66.37,40l-1.18-.58,3.65-6.52Z" transform="translate(-15.33 -6.85)"/><path class="cls-30" d="M169.13,137.16l7-2.32-5,3.28Z" transform="translate(-15.33 -6.85)"/><path class="cls-31" d="M127,115.95l1,1-6,5.31Z" transform="translate(-15.33 -6.85)"/><path class="cls-32" d="M103,173l-1-14,.9-4.25L106.09,143l6-4.09.92,0c.28.16.57.48.84.47,13.43-.74,26-4.19,37.11-12l.42,6.46-3.24,7.24c-1,1.52-1.75,3.32-3.05,4.5-4.17,3.76-8.54,7.31-12.85,10.91s-8.91,6.53-10.36,12.32l-1.74,9.88.84,3.39-12.29,4.6Z" transform="translate(-15.33 -6.85)"/><path class="cls-18" d="M151,127.4c-11.13,7.84-23.68,11.29-37.11,12-.27,0-.56-.3-.84-.47,1.88-1.1,3.64-2.59,5.67-3.22,7.74-2.4,15.69-4.2,23.34-6.84a33.11,33.11,0,0,0,15.42-10.59c.55-.68,1.69-.9,2.55-1.33Z" transform="translate(-15.33 -6.85)"/><path class="cls-33" d="M103,173l5.66,13.72,12.29-4.6,1.14,3.77L109,190.58l-4-5.4Z" transform="translate(-15.33 -6.85)"/><path class="cls-34" d="M121.87,168.84c1.45-5.79,6.17-8.83,10.36-12.32s8.68-7.15,12.85-10.91c1.31-1.18,2.05-3,3.05-4.5l1,1c-2.17,5.91-6.58,9.75-11.64,13.17-5.79,3.91-11.39,8.1-14.62,14.61Z" transform="translate(-15.33 -6.85)"/><path class="cls-35" d="M165.12,106c.63.58,1.78,1.11,1.82,1.74.46,6.1.7,12.21,1.1,18.31.17,2.62.59,5.23.89,7.84-.95-2.88-2-5.73-2.82-8.65-1.15-4.07-2.12-8.18-3.17-12.28Z" transform="translate(-15.33 -6.85)"/><path class="cls-36" d="M121.87,168.84l1,1-2.71,8.85Z" transform="translate(-15.33 -6.85)"/><path class="cls-37" d="M149.1,142.09l-1-1,3.24-7.24Z" transform="translate(-15.33 -6.85)"/><path class="cls-38" d="M102.9,154.75,102,159c-.33,1.72-.64,3.44-1,5.15q-1.39,7-2.81,13.9l-4.53,8.72L82,182l-.73-11.22a21.2,21.2,0,0,0-8.14-11.54q-6.24-4.49-12.33-9.17c-5.3-4.08-8.93-9.23-9.84-16v-5c11.62,5.75,23.6,10.28,37.6,10.22L92,138l6.29,7.8,1.93-15.92L102,131c.1,5.53.15,11.06.32,16.58C102.39,150,102.7,152.36,102.9,154.75Z" transform="translate(-15.33 -6.85)"/><path class="cls-8" d="M92,138l-3.38,1.29c-14,.06-26-4.47-37.6-10.22l-10.09-9.75-4-7.13-1,.12L33,129H32c.48-8.55,1-17.1,1.43-25.65.16-3.09.56-6.32-3.41-8.47L27.92,102,25,104l4.06-15L37,84l17-2.22,2.42,4.54L40.25,90.4A31.85,31.85,0,0,0,49,112c11.59,11.8,25.87,18.32,42,21.25Z" transform="translate(-15.33 -6.85)"/><path class="cls-39" d="M33,129l2.91-16.7,1-.12,4,7.13c-.95,3.11-2.12,6.17-2.79,9.34-.88,4.18-1.36,8.44-2,12.66l-3.92,14.61L31.86,139Z" transform="translate(-15.33 -6.85)"/><path class="cls-16" d="M51,134c.92,6.8,4.54,12,9.84,16q6.09,4.68,12.33,9.17a21.2,21.2,0,0,1,8.14,11.54l-1.18,1.13c-2.88-7.8-9.28-12.26-15.79-16.6-6.05-4-11.32-8.72-13.24-16.08C50.65,137.59,51,135.77,51,134Z" transform="translate(-15.33 -6.85)"/><path class="cls-40" d="M80.11,171.89l1.18-1.13L82,182a2.36,2.36,0,0,1-.78.16Z" transform="translate(-15.33 -6.85)"/><path class="cls-24" d="M31.86,139l.32,16.86c-4.07,2.63-8.35,4.58-13.38,4L23,135.63l-3-3.93c-.5-9.46,1.57-18.69,5-27.7l2.9-2c-.45,4.41-1,8.82-1.34,13.24-.49,6.52-.81,13.06-1.19,19.44L30,137.14Z" transform="translate(-15.33 -6.85)"/><path class="cls-41" d="M37,84l-7.95,5L29,82c3.88-2.2,4.75-4.34,4-9.89l4.1-7.1,1.25,0A54.32,54.32,0,0,0,37,72.34C36.77,76.21,37,80.1,37,84Z" transform="translate(-15.33 -6.85)"/><path class="cls-42" d="M37.07,65,33,72.13l-1.89-1.52-2.13,1.26L41.14,54.1Z" transform="translate(-15.33 -6.85)"/><path class="cls-18" d="M28.95,71.87l2.13-1.26L33,72.13c.74,5.55-.14,7.69-4,9.89l-2.89-2.71Z" transform="translate(-15.33 -6.85)"/><path class="cls-43" d="M37.07,65,41.14,54.1l2.36-4.68A.51.51,0,0,1,44,49c.08.88.49,1.9.19,2.63-1.88,4.51-3.93,9-5.92,13.43Z" transform="translate(-15.33 -6.85)"/><path class="cls-44" d="M60.21,23.95c-.92,3.22-2,4-4.41,3,.15-1.11.28-2.24.49-3.34.05-.28.37-.5.94-1.21Z" transform="translate(-15.33 -6.85)"/><path class="cls-21" d="M122.07,80l1.85,8c-.1,1.46-.3,2.93-.28,4.39.06,3.81.41,7.63.32,11.44-.18,7.39-4,13.06-11.24,14.52a64.46,64.46,0,0,1-19.18,1c-9-1-14.29-7.27-15.52-16.32a36.54,36.54,0,0,0-1.85-6l2.81-16c.94-1.73,2.64-3.46,2.67-5.21.11-6.11,3.77-9.27,8.58-11.76L104.11,62c6.61,2.9,12.32,6.62,14.51,14.18C119.06,77.65,120.88,78.75,122.07,80Z" transform="translate(-15.33 -6.85)"/><path class="cls-2" d="M79,81.09l-2.81,16a57.07,57.07,0,0,0-.08,6C76.8,111.28,80,118,87.65,122.12c4.32,2.32,8.37,5.15,12.55,7.74l-1.93,15.92L92,138l-1.06-4.72L92,130.13,83,125c-1.43-2.93-3.31-5.24-7-5.06l-1-1.43a23,23,0,0,0-1.85-3.93c-5.74-8-7.41-16.58-3.89-25.84C70.44,85.72,72.43,83,74,80.06l2-1.22Z" transform="translate(-15.33 -6.85)"/><path class="cls-5" d="M76,78.84l-2,1.22-2-2a16.52,16.52,0,0,1-6-13.11c.47-5.81,3.93-10.2,7-14.78l1.79-.37c-2.55,5.67-2.63,11.41.33,16.85C77.4,70.69,75.83,74.77,76,78.84Z" transform="translate(-15.33 -6.85)"/><path class="cls-45" d="M86,38.08l.23,2.17L80,44a25,25,0,0,1-5.21,1A51.08,51.08,0,0,1,68,44l6-5-.38-.2C76.13,33.69,79,33,83.06,36.38A20.13,20.13,0,0,0,86,38.08Z" transform="translate(-15.33 -6.85)"/><path class="cls-13" d="M68,44a51.08,51.08,0,0,0,6.8,1A25,25,0,0,0,80,44l-5.15,5.78-1.79.37c-5.83-.44-7.93,3.92-10.27,8l-1.91-2.22Z" transform="translate(-15.33 -6.85)"/><path class="cls-15" d="M104.11,62,90.23,64.12C94.46,60.85,99.37,61.94,104.11,62Z" transform="translate(-15.33 -6.85)"/><path class="cls-3" d="M60.87,55.89l1.91,2.22L66,64.92a16.52,16.52,0,0,0,6,13.11c-1.25,2.13-2.52,4.24-3.73,6.38C62,95.57,64.08,110.51,75,118.56L76,120,83,125l9,5.08-1.09,3.14c-16.09-2.93-30.37-9.44-42-21.25A31.85,31.85,0,0,1,40.25,90.4l16.15-4.1L54,81.77,37,84c0-3.88-.26-7.78-.05-11.65A54.32,54.32,0,0,1,38.31,65c2-4.47,4-8.92,5.92-13.43.3-.72-.11-1.74-.19-2.63l3.86-5.25,4.32,2.46L48.91,62,49,70l1.44,4.43L51.58,74l-1.2-5.17L50,62l2-6.12Z" transform="translate(-15.33 -6.85)"/><path class="cls-46" d="M50,62l.37,6.84L49,70l-.09-8Z" transform="translate(-15.33 -6.85)"/><path class="cls-34" d="M100.19,129.87c-4.17-2.6-8.23-5.42-12.55-7.74C80,118,76.8,111.28,76.09,103.05a57.07,57.07,0,0,1,.08-6,36.54,36.54,0,0,1,1.85,6c1.23,9.05,6.48,15.37,15.52,16.32a64.46,64.46,0,0,0,19.18-1C120,117,123.78,111.29,124,103.9c.09-3.81-.25-7.62-.32-11.44,0-1.46.18-2.93.28-4.39,1.28,6.66,2.91,13.21,1.46,20.15-1.54,7.39-6,12-12.52,15-2.39,1.13-4.66,2.49-7,3.75L102,131Z" transform="translate(-15.33 -6.85)"/><path class="cls-5" d="M102,131l3.88-4,.21,16-3.19,11.73c-.2-2.39-.51-4.78-.58-7.17C102.15,142.06,102.1,136.53,102,131Z" transform="translate(-15.33 -6.85)"/><path class="cls-1" d="M30,137.14l-4.58-2.47c.38-6.38.71-12.91,1.19-19.44.33-4.42.88-8.83,1.34-13.24L30,94.88c4,2.15,3.57,5.38,3.41,8.47-.45,8.55-1,17.1-1.43,25.65Z" transform="translate(-15.33 -6.85)"/><path class="cls-47" d="M30,137.14,32,129h1l-1.15,10Z" transform="translate(-15.33 -6.85)"/><path class="cls-8" d="M75,118.56c-10.94-8.06-13-23-6.67-34.15,1.21-2.15,2.49-4.26,3.73-6.38l2,2c-1.61,2.9-3.6,5.66-4.76,8.73-3.52,9.26-1.85,17.88,3.89,25.84A23,23,0,0,1,75,118.56Z" transform="translate(-15.33 -6.85)"/><path class="cls-48" d="M83,125,76,120C79.67,119.81,81.55,122.12,83,125Z" transform="translate(-15.33 -6.85)"/><path class="cls-49" d="M66,64.92l-3.27-6.81c2.34-4.05,4.44-8.42,10.27-8C70,54.72,66.52,59.11,66,64.92Z" transform="translate(-15.33 -6.85)"/><path class="cls-50" d="M49,70l1.38-1.16L51.58,74l-1.13.42Z" transform="translate(-15.33 -6.85)"/></svg>